<?xml version="1.0" encoding="UTF-8"?>
<svg width="106px" height="105px" viewBox="0 0 106 105" version="1.1" xmlns="http://www.w3.org/2000/svg" xmlns:xlink="http://www.w3.org/1999/xlink">
    <!-- Generator: Sketch 41.2 (35397) - http://www.bohemiancoding.com/sketch -->
    <title>Group 9</title>
    <desc>Created with Sketch.</desc>
    <defs></defs>
    <g id="Main-Page" stroke="none" stroke-width="1" fill="none" fill-rule="evenodd">
        <g id="Desktop-Copy-8" transform="translate(-150.000000, -1227.000000)">
            <g id="Group-9" transform="translate(150.000000, 1227.000000)">
                <rect id="Rectangle-2" fill="#000000" x="0" y="0" width="105.904762" height="104.875912" rx="30"></rect>
                <g id="car" transform="translate(13.000000, 33.000000)" fill="#FFFFFF">
                    <g id="Capa_1">
                        <g id="Group">
                            <g transform="translate(16.651297, 25.529985)" id="Shape">
                                <path d="M42.6523111,9.15034887 L14.8794603,9.15034887 C14.2088884,9.15034887 13.6646562,8.59975033 13.6646562,7.92133427 C13.6646562,7.24291821 14.2088884,6.69231967 14.8794603,6.69231967 L42.6523111,6.69231967 C43.3228829,6.69231967 43.8671152,7.24291821 43.8671152,7.92133427 C43.8671152,8.59975033 43.3228829,9.15034887 42.6523111,9.15034887 Z"></path>
                                <path d="M8.27335568,15.8361883 C3.9583716,15.8361883 0.447587814,12.2867941 0.447587814,7.91887624 C0.447587814,3.55095836 3.95594199,0.0015642004 8.27335568,0.0015642004 C12.5859102,0.0015642004 16.0966939,3.55095836 16.0966939,7.91887624 C16.0966939,12.2867941 12.5859102,15.8361883 8.27335568,15.8361883 Z M8.27335568,2.46205143 C5.29708569,2.46205143 2.87719597,4.91024851 2.87719597,7.92133427 C2.87719597,10.93242 5.29708569,13.3806171 8.27335568,13.3806171 C11.2471961,13.3806171 13.6670858,10.93242 13.6670858,7.92133427 C13.6670858,4.91024851 11.2447665,2.46205143 8.27335568,2.46205143 Z"></path>
                                <path d="M49.2632749,15.8361883 C44.9482908,15.8361883 41.437507,12.2867941 41.437507,7.91887624 C41.437507,3.55095836 44.9458612,0.0015642004 49.2632749,0.0015642004 C53.5806886,0.0015642004 57.0890428,3.55095836 57.0890428,7.91887624 C57.0890428,12.2867941 53.578259,15.8361883 49.2632749,15.8361883 Z M49.2632749,2.46205143 C46.2870049,2.46205143 43.8671152,4.91024851 43.8671152,7.92133427 C43.8671152,10.93242 46.2870049,13.3806171 49.2632749,13.3806171 C52.2395449,13.3806171 54.6594346,10.93242 54.6594346,7.92133427 C54.6594346,4.91024851 52.2371153,2.46205143 49.2632749,2.46205143 Z"></path>
                            </g>
                            <path d="M59.3133263,34.6803339 L31.5356163,34.6803339 C30.8650444,34.6803339 30.3208122,34.1297354 30.3208122,33.4513193 C30.3208122,32.7729033 30.8650444,32.2223047 31.5356163,32.2223047 L59.3133263,32.2223047 C59.9838982,32.2223047 60.5281304,32.7729033 60.5281304,33.4513193 C60.5281304,34.1297354 59.9838982,34.6803339 59.3133263,34.6803339 Z" id="Shape"></path>
                            <path d="M78.3565951,34.6803339 L72.5182467,34.6803339 C71.8476748,34.6803339 71.3034426,34.1297354 71.3034426,33.4513193 C71.3034426,32.7729033 71.8476748,32.2223047 72.5182467,32.2223047 L78.3565951,32.2223047 C79.8605225,32.2223047 81.1214891,31.1309398 81.3523019,29.6266259 L82.6472831,21.2373723 C82.7371786,20.6499033 82.5938317,20.0648923 82.2366793,19.5904927 C81.8819565,19.1185511 81.3693092,18.8186715 80.7837736,18.7449307 L64.6001537,16.7490109 C64.3669113,16.7195146 64.1458169,16.6236515 63.9660259,16.4712536 L49.3373552,4.03116788 C48.3728008,3.21018613 47.1458487,2.75790876 45.8824524,2.75790876 L22.9979732,2.75790876 C21.8682054,2.75790876 20.8307627,3.33308759 20.2209311,4.29663504 L13.3815841,15.1242536 C13.2285188,15.3725146 12.9879876,15.5544088 12.7110123,15.6379818 L4.45034456,18.1574617 C3.22339244,18.5310821 2.45077704,19.7773029 2.6475753,21.0603942 L3.80406879,28.5549252 C4.13206589,30.6762044 5.91053906,32.2173887 8.03401659,32.2173887 L18.3088295,32.2173887 C18.9794013,32.2173887 19.5236336,32.7679872 19.5236336,33.4464033 C19.5236336,34.1248193 18.9794013,34.6754179 18.3088295,34.6754179 L8.02915737,34.6754179 C4.7005942,34.6754179 1.90897442,32.2616332 1.39875671,28.9334617 L0.242263229,21.4389307 C-0.139185252,18.9514051 1.3647422,16.5302464 3.74332858,15.8051277 L11.5763853,13.4159234 L18.175201,2.96929927 C19.2320806,1.30029745 21.0348498,0.302337591 22.9979732,0.302337591 L45.8873117,0.302337591 C47.7192362,0.302337591 49.500139,0.958631387 50.9020229,2.15077555 L65.2537183,14.3548905 L81.0801858,16.3065657 C82.3241452,16.4614215 83.4223281,17.0980511 84.1755066,18.1083011 C84.9311147,19.1160931 85.239675,20.3623139 85.0477359,21.6159088 L83.7527548,30.0051624 C83.3372918,32.7139106 81.0656081,34.6803339 78.3565951,34.6803339 Z" id="Shape"></path>
                            <path d="M51.5944612,17.7076423 L23.7317149,17.7076423 C23.061143,17.7076423 22.5169108,17.1570438 22.5169108,16.4786277 C22.5169108,15.8002117 23.061143,15.2496131 23.7317149,15.2496131 L51.5944612,15.2496131 C52.2650331,15.2496131 52.8092653,15.8002117 52.8092653,16.4786277 C52.8092653,17.1570438 52.2650331,17.7076423 51.5944612,17.7076423 Z" id="Shape"></path>
                        </g>
                    </g>
                </g>
            </g>
        </g>
    </g>
</svg>