<?xml version="1.0" encoding="UTF-8"?>
<svg width="106px" height="105px" viewBox="0 0 106 105" version="1.1" xmlns="http://www.w3.org/2000/svg" xmlns:xlink="http://www.w3.org/1999/xlink">
    <!-- Generator: Sketch 41.2 (35397) - http://www.bohemiancoding.com/sketch -->
    <title>Group 8</title>
    <desc>Created with Sketch.</desc>
    <defs></defs>
    <g id="Main-Page" stroke="none" stroke-width="1" fill="none" fill-rule="evenodd">
        <g id="Desktop-Copy-8" transform="translate(-597.000000, -1054.000000)">
            <g id="Group-8" transform="translate(597.000000, 1054.000000)">
                <rect id="Rectangle-2" fill="#000000" x="0" y="0" width="105.904762" height="104.875912" rx="30"></rect>
                <g id="computer" transform="translate(15.000000, 17.000000)" fill="#FFFFFF">
                    <g id="Group">
                        <path d="M46.9797247,50.9400947 C46.1591359,50.9400947 45.4930246,51.5997349 45.4930246,52.4123517 C45.4930246,53.2249686 46.1591359,53.8846088 46.9797247,53.8846088 C47.8003135,53.8846088 48.4664249,53.2249686 48.4664249,52.4123517 C48.4664249,51.5997349 47.8003135,50.9400947 46.9797247,50.9400947 Z" id="Shape"></path>
                        <path d="M68.6855469,0 L7.43350074,0 C3.33462205,0 0,3.30222668 0,7.36128536 L0,52.4123517 C0,56.4714104 3.33462205,59.7736371 7.43350074,59.7736371 L30.6260231,59.7736371 L30.6260231,66.5460196 L29.1393229,66.5460196 C27.154346,66.5460196 25.288421,67.3120534 23.8836057,68.7026463 C22.4793708,70.0938141 21.7058222,71.9416118 21.7058222,73.907305 C21.7058222,74.720497 22.3713527,75.379562 23.1925223,75.379562 L52.9265253,75.379562 C53.7476949,75.379562 54.4132254,74.720497 54.4132254,73.907305 C54.4132254,69.8482463 51.0786034,66.5460196 46.9797247,66.5460196 L45.4930246,66.5460196 L45.4930246,59.7736371 L68.6855469,59.7736371 C72.7844256,59.7736371 76.1190476,56.4714104 76.1190476,52.4123517 L76.1190476,7.36128536 C76.1190476,3.30222668 72.7844256,0 68.6855469,0 Z M7.43350074,2.94451414 L68.6855469,2.94451414 C71.1449903,2.94451414 73.1456473,4.92573505 73.1456473,7.36128536 L73.1456473,45.0510664 L66.3068266,45.0510664 L66.3068266,11.1891537 C66.3068266,10.3759617 65.6412961,9.71689667 64.8201265,9.71689667 L52.9265253,9.71689667 C52.1053557,9.71689667 51.4398251,10.3759617 51.4398251,11.1891537 L51.4398251,45.0510664 L43.9981939,45.0510664 C43.982514,43.5282005 43.9424427,42.0271885 43.8785611,40.571034 C43.6183886,34.5750372 43.0254508,30.5585358 42.7170766,28.7918273 C45.7845572,26.5552619 46.6219875,22.409938 44.7467708,19.1893757 L39.5938447,10.3512325 C39.3278649,9.89575294 38.8371377,9.61510393 38.3063392,9.61510393 C37.7749602,9.61510393 37.2842329,9.89575294 37.0188337,10.3512325 L31.8635848,19.1899508 C30.0958054,22.226481 30.7224264,26.1595928 33.4995357,28.4806981 C33.1778044,30.2422305 32.5285347,34.402507 32.246294,40.5681586 C32.1795086,42.0398406 32.1371143,43.5420029 32.1208537,45.0510664 L24.6792225,45.0510664 L24.6792225,22.9672103 C24.6792225,22.7337195 24.6234712,22.5209324 24.5322947,22.3317244 C24.5282295,22.324248 24.5259065,22.3161966 24.522422,22.3087204 L18.5756214,10.5306638 C18.3235793,10.0320517 17.8090416,9.71689667 17.2457217,9.71689667 C16.6824018,9.71689667 16.1678641,10.0320517 15.9158221,10.5306638 L9.96902146,22.3087204 C9.96553693,22.3161966 9.96321397,22.324248 9.95972959,22.3317244 C9.86681083,22.5226577 9.81222098,22.7388955 9.81222098,22.9672103 L9.81222098,45.0510664 L2.9734003,45.0510664 L2.9734003,7.36128536 C2.9734003,4.92573505 4.9740573,2.94451414 7.43350074,2.94451414 L7.43350074,2.94451414 Z M54.4132254,45.0510664 L54.4132254,12.6614108 L63.3334263,12.6614108 L63.3334263,15.605925 L61.8467262,15.605925 C61.0255566,15.605925 60.360026,16.26499 60.360026,17.078182 C60.360026,17.8913741 61.0255566,18.5504391 61.8467262,18.5504391 L63.3334263,18.5504391 L63.3334263,22.9672103 L61.8467262,22.9672103 C61.0255566,22.9672103 60.360026,23.6262753 60.360026,24.4394674 C60.360026,25.2526594 61.0255566,25.9117245 61.8467262,25.9117245 L63.3334263,25.9117245 L63.3334263,30.3284957 L61.8467262,30.3284957 C61.0255566,30.3284957 60.360026,30.9875607 60.360026,31.8007527 C60.360026,32.6139448 61.0255566,33.2730098 61.8467262,33.2730098 L63.3334263,33.2730098 L63.3334263,39.1620381 L61.8467262,39.1620381 C61.0255566,39.1620381 60.360026,39.8211031 60.360026,40.6342952 C60.360026,41.4474872 61.0255566,42.1065522 61.8467262,42.1065522 L63.3334263,42.1065522 L63.3334263,45.0510664 L54.4132254,45.0510664 Z M38.3063392,30.2267029 C38.8464296,30.2267029 39.3841968,30.1651671 39.9103494,30.0501471 C40.186202,31.8013278 40.59156,34.8999689 40.8314065,39.1620381 L35.2975137,39.1620381 C35.548975,34.9028443 35.9734977,31.7558948 36.2667725,29.9454789 C36.9253342,30.1312362 37.6111908,30.2267029 38.3063392,30.2267029 Z M38.3063392,27.2821888 C34.9084165,27.2821888 32.7172759,23.6199493 34.4391767,20.6616328 L38.3063392,14.0318751 L42.1711789,20.6610577 C43.8866914,23.607297 41.7257496,27.2821888 38.3063392,27.2821888 Z M35.1610392,42.1065522 L40.9620736,42.1065522 C40.9934336,43.0738711 41.0149211,44.0578679 41.0253745,45.0510664 L35.094254,45.0510664 C35.105288,44.0641941 35.127937,43.0801972 35.1610392,42.1065522 Z M18.7324219,45.0510664 L18.7324219,24.4394674 L21.7058222,24.4394674 L21.7058222,45.0510664 L18.7324219,45.0510664 Z M12.7856213,45.0510664 L12.7856213,24.4394674 L15.7590216,24.4394674 L15.7590216,45.0510664 L12.7856213,45.0510664 Z M13.7043556,21.4949532 L17.2457217,14.4810285 L20.7870879,21.4949532 L13.7043556,21.4949532 Z M51.1848793,72.4350479 L24.9324261,72.4350479 C25.1507852,71.8214157 25.5073608,71.2589676 25.9858924,70.7845096 C26.8291303,69.950039 27.9488014,69.4905338 29.1393229,69.4905338 L46.9797247,69.4905338 C48.9182422,69.4905338 50.5716155,70.7212487 51.1848793,72.4350479 Z M42.5196243,66.5460196 L33.5994234,66.5460196 L33.5994234,59.7736371 L42.5196243,59.7736371 L42.5196243,66.5460196 Z M68.6855469,56.8291229 L7.43350074,56.8291229 C4.9740573,56.8291229 2.9734003,54.847902 2.9734003,52.4123517 L2.9734003,47.9955805 L73.1456473,47.9955805 L73.1456473,52.4123517 C73.1456473,54.847902 71.1449903,56.8291229 68.6855469,56.8291229 Z" id="Shape"></path>
                        <path d="M41.0329241,50.9400947 L32.1127232,50.9400947 C31.2915536,50.9400947 30.6260231,51.5991597 30.6260231,52.4123517 C30.6260231,53.2255438 31.2915536,53.8846088 32.1127232,53.8846088 L41.0329241,53.8846088 C41.8540937,53.8846088 42.5196243,53.2255438 42.5196243,52.4123517 C42.5196243,51.5991597 41.8540937,50.9400947 41.0329241,50.9400947 Z" id="Shape"></path>
                    </g>
                </g>
            </g>
        </g>
    </g>
</svg>