<?xml version="1.0" encoding="UTF-8"?>
<svg width="106px" height="105px" viewBox="0 0 106 105" version="1.1" xmlns="http://www.w3.org/2000/svg" xmlns:xlink="http://www.w3.org/1999/xlink">
    <!-- Generator: Sketch 41.2 (35397) - http://www.bohemiancoding.com/sketch -->
    <title>Group 10</title>
    <desc>Created with Sketch.</desc>
    <defs></defs>
    <g id="Main-Page" stroke="none" stroke-width="1" fill="none" fill-rule="evenodd">
        <g id="Desktop-Copy-8" transform="translate(-595.000000, -1224.000000)">
            <g id="Group-10" transform="translate(595.000000, 1224.000000)">
                <rect id="Rectangle-2" fill="#000000" x="0" y="0" width="105.904762" height="104.875912" rx="30"></rect>
                <g id="consulting" transform="translate(22.000000, 20.000000)" fill="#FFFFFF">
                    <g id="Group">
                        <path d="M59.515065,51.8863849 L56.8765447,50.9792078 C58.3536373,49.8206679 59.3036243,48.0310054 59.3036243,46.0245489 L59.3036243,44.109452 C59.3036243,40.6249435 56.4406976,37.7898298 52.9220056,37.7898298 C49.4033136,37.7898298 46.5403869,40.6249435 46.5403869,44.109452 L46.5403869,46.0245489 C46.5403869,48.0310054 47.4908725,49.8206679 48.9679652,50.9792078 L46.3289462,51.8863849 C44.6364234,52.4686178 43.213687,53.5362917 42.194882,54.8977983 L35.0667381,54.8977983 L35.0667381,52.112068 C35.0667381,48.4453341 32.7164553,45.1736691 29.2187079,43.9711778 L26.5796888,43.0640007 C28.0567816,41.9054608 29.0072672,40.1157983 29.0072672,38.1093417 L29.0072672,36.1942449 C29.0072672,32.7092427 26.1443405,29.8746227 22.6256485,29.8746227 C19.1069565,29.8746227 16.2440298,32.7097365 16.2440298,36.1942449 L16.2440298,38.1093417 C16.2440298,40.1157983 17.1945154,41.9054608 18.6711093,43.0640007 L16.0325891,43.9711778 C12.5348416,45.1736691 10.1845589,48.4453341 10.1845589,52.112068 L10.1845589,54.8977983 L0.966942183,54.8977983 C0.43285497,54.8977983 0,55.326448 0,55.8553466 L0,63.7705537 C0,64.2994523 0.43285497,64.7281022 0.966942183,64.7281022 L41.1905388,64.7281022 C41.2339241,64.7281022 41.2768106,64.7241515 41.3191984,64.7187193 C41.3615864,64.7241515 41.4044729,64.7281022 41.4483568,64.7281022 L64.3961531,64.7281022 C64.9302403,64.7281022 65.3630952,64.2994523 65.3630952,63.7705537 L65.3630952,60.0272751 C65.3630952,56.3610349 63.0133111,53.0893699 59.515065,51.8863849 L59.515065,51.8863849 Z M48.4742712,44.109452 C48.4742712,41.6807653 50.4694933,39.7049266 52.9220056,39.7049266 C55.3745179,39.7049266 57.3697401,41.6807653 57.3697401,44.109452 L57.3697401,46.0245489 C57.3697401,48.4532354 55.3745179,50.4290742 52.9220056,50.4290742 C50.4694933,50.4290742 48.4742712,48.4532354 48.4742712,46.0245489 L48.4742712,44.109452 Z M18.177914,36.1942449 C18.177914,33.7655584 20.173136,31.7897195 22.6256485,31.7897195 C25.0781608,31.7897195 27.0733828,33.7655584 27.0733828,36.1942449 L27.0733828,38.1093417 C27.0733828,40.5380284 25.0781608,42.5138671 22.6256485,42.5138671 C20.173136,42.5138671 18.177914,40.5380284 18.177914,38.1093417 L18.177914,36.1942449 Z M24.6542821,44.428964 L25.5937969,44.7519329 L22.6256485,49.8517796 L19.6575001,44.7519329 L20.5970148,44.428964 L24.6542821,44.428964 Z M12.1184431,52.112068 C12.1184431,49.2601639 13.9466071,46.7154257 16.6669111,45.7801 L17.7979192,45.3914508 L21.7878647,52.247873 C21.9604082,52.5446686 22.2800627,52.727388 22.6256485,52.727388 C22.9712343,52.727388 23.2908887,52.5446686 23.4634323,52.247873 L27.4533777,45.3914508 L28.5843858,45.7801 C31.3046898,46.7154257 33.1323551,49.2601639 33.1323551,52.112068 L33.1323551,54.8977983 L12.1184431,54.8977983 L12.1184431,52.112068 Z M1.93388437,56.8128951 L41.1112486,56.8128951 C40.7033277,57.8148888 40.4814146,58.9023162 40.4814146,60.0272751 L40.4814146,62.8130052 L1.93388437,62.8130052 L1.93388437,56.8128951 Z M63.4292109,62.8130052 L42.415299,62.8130052 L42.415299,60.0272751 C42.415299,57.1753708 44.2429642,54.6311266 46.9632683,53.695307 L50.8933719,52.3441711 L54.9506393,52.3441711 L58.8807429,53.695307 C61.6015456,54.6311266 63.4292109,57.1753708 63.4292109,60.0272751 L63.4292109,62.8130052 Z" id="Shape"></path>
                        <path d="M59.2392945,6.89395375 L49.4172767,6.89395375 C48.8831894,6.89395375 48.4503345,7.32309741 48.4503345,7.85150223 C48.4503345,8.38040074 48.8831894,8.80905071 49.4172767,8.80905071 L59.2392945,8.80905071 C61.5496828,8.80905071 63.4292109,10.6703194 63.4292109,12.9587565 L63.4292109,26.2360374 C63.4292109,28.5239806 61.5496828,30.3852493 59.2392945,30.3852493 L45.9604211,30.3852493 C45.4263338,30.3852493 44.9934789,30.8138991 44.9934789,31.3427978 L44.9934789,35.4149713 L40.1981639,30.6657483 C40.0166441,30.4859919 39.7707945,30.3852493 39.5144726,30.3852493 L31.6502756,30.3852493 C29.3398873,30.3852493 27.4598605,28.5239806 27.4598605,26.2360374 L27.4598605,12.9582626 C27.4598605,10.6703194 29.3393886,8.80905071 31.6502756,8.80905071 L44.8967349,8.80905071 C45.4308221,8.80905071 45.8636769,8.38040074 45.8636769,7.85150223 C45.8636769,7.3226036 45.4308221,6.89395375 44.8967349,6.89395375 L39.8366203,6.89395375 L39.8366203,6.06430889 C39.8366203,2.72054375 37.0893876,0 33.7128196,0 L6.12380073,0 C2.74723272,0 2.26773792e-16,2.72054375 2.26773792e-16,6.06430889 L2.26773792e-16,8.18138484 C2.26773792e-16,8.71028347 0.43285497,9.13893319 0.966942183,9.13893319 C1.50102927,9.13893319 1.93388437,8.71028347 1.93388437,8.18138484 L1.93388437,6.06430889 C1.93388437,3.77636567 3.81341243,1.91509696 6.12380073,1.91509696 L33.7128196,1.91509696 C36.0232079,1.91509696 37.9027361,3.77636567 37.9027361,6.06430889 L37.9027361,6.89395375 L31.6502756,6.89395375 C28.2737076,6.89395375 25.5264749,9.61449751 25.5264749,12.9582626 L25.5264749,23.4908017 L15.406246,23.4908017 C14.8721588,23.4908017 14.4393038,23.9194516 14.4393038,24.4483502 L14.4393038,28.5205237 L9.64398882,23.7713007 C9.462469,23.5915443 9.21661925,23.4908017 8.96029736,23.4908017 L6.12380073,23.4908017 C3.81341243,23.4908017 1.93388437,21.629533 1.93388437,19.3415898 L1.93388437,12.6338123 C1.93388437,12.1049136 1.50102927,11.6762638 0.966942183,11.6762638 C0.43285497,11.6762638 0,12.1049136 0,12.6338123 L0,19.3415898 C0,22.6858486 2.74723272,25.4058987 6.12380073,25.4058987 L8.55935796,25.4058987 L14.7225545,31.5092206 C14.9075651,31.6924338 15.1549108,31.7897195 15.406246,31.7892257 C15.5309161,31.7892257 15.6565837,31.7655216 15.7762671,31.7166318 C16.137312,31.5684809 16.373188,31.2193387 16.373188,30.832171 L16.373188,25.4058987 L25.5264749,25.4058987 L25.5264749,26.2360374 C25.5264749,29.5798024 28.2737076,32.2998524 31.6502756,32.2998524 L39.1140318,32.2998524 L45.2767296,38.4031743 C45.4617402,38.5863876 45.7090859,38.6836733 45.9604211,38.6836733 C46.0850913,38.6836733 46.2107588,38.6599691 46.3304422,38.6105855 C46.6914872,38.4624347 46.9273632,38.1132924 46.9273632,37.7261248 L46.9273632,32.2998524 L59.2392945,32.2998524 C62.6158625,32.2998524 65.3630952,29.5798024 65.3630952,26.2360374 L65.3630952,12.9582626 C65.3630952,9.61449751 62.6158625,6.89395375 59.2392945,6.89395375 Z" id="Shape"></path>
                    </g>
                </g>
            </g>
        </g>
    </g>
</svg>