<?xml version="1.0" encoding="UTF-8"?>
<svg width="106px" height="105px" viewBox="0 0 106 105" version="1.1" xmlns="http://www.w3.org/2000/svg" xmlns:xlink="http://www.w3.org/1999/xlink">
    <!-- Generator: Sketch 41.2 (35397) - http://www.bohemiancoding.com/sketch -->
    <title>Group 5</title>
    <desc>Created with Sketch.</desc>
    <defs></defs>
    <g id="Main-Page" stroke="none" stroke-width="1" fill="none" fill-rule="evenodd">
        <g id="Desktop-Copy-8" transform="translate(-150.000000, -883.000000)">
            <g id="Group-5" transform="translate(150.000000, 883.000000)">
                <rect id="Rectangle-2" fill="#000000" x="0" y="0" width="105.904762" height="104.875912" rx="30"></rect>
                <g id="smartphone" transform="translate(34.000000, 20.000000)" fill="#FFFFFF">
                    <g id="Capa_1">
                        <path d="M31.3380756,0 L5.18589402,0 C2.53691223,0 0.389031279,2.12444326 0.389031279,4.74451934 L0.389031279,61.0355583 C0.389031279,63.6563404 2.53619841,65.7800777 5.18589402,65.7800777 L31.3380756,65.7800777 C33.9884851,65.7800777 36.136366,63.6563404 36.136366,61.0355583 L36.136366,4.74451934 C36.1356522,2.12444326 33.9884851,0 31.3380756,0 Z M15.0530121,2.80505585 L21.4709575,2.80505585 C21.701521,2.80505585 21.8892554,2.99074165 21.8892554,3.21949526 C21.8892554,3.44754284 21.701521,3.63322865 21.4709575,3.63322865 L15.0530121,3.63322865 C14.8217348,3.63322865 14.6347143,3.44754284 14.6347143,3.21949526 C14.6347143,2.99074165 14.8224486,2.80505585 15.0530121,2.80505585 Z M8.65576751,1.80955403 C9.02552568,1.80955403 9.3253296,2.10608648 9.3253296,2.47180985 C9.3253296,2.83753322 9.0262395,3.13406567 8.65576751,3.13406567 C8.28529552,3.13406567 7.98620542,2.83753322 7.98620542,2.47180985 C7.98620542,2.10608648 8.28600934,1.80955403 8.65576751,1.80955403 Z M5.62203735,1.41276536 C6.21379318,1.41276536 6.69276564,1.88721729 6.69276564,2.47180985 C6.69276564,3.05640241 6.21379318,3.53085434 5.62203735,3.53085434 C5.03028151,3.53085434 4.55130906,3.05640241 4.55130906,2.47180985 C4.55130906,1.88721729 5.03028151,1.41276536 5.62203735,1.41276536 Z M19.9369608,63.3718105 L16.5884365,63.3718105 C15.526274,63.3718105 14.6661223,62.5210447 14.6661223,61.4718847 C14.6661223,60.4220186 15.526274,59.5712528 16.5884365,59.5712528 L19.9369608,59.5712528 C20.9991232,59.5712528 21.859275,60.4220186 21.859275,61.4718847 C21.859275,62.5210447 20.9991232,63.3718105 19.9369608,63.3718105 Z M34.1041237,58.0695277 L2.42055976,58.0695277 L2.42055976,7.70984392 L34.1041237,7.70984392 L34.1041237,58.0695277 Z" id="Shape"></path>
                    </g>
                </g>
            </g>
        </g>
    </g>
</svg>