<?xml version="1.0" encoding="UTF-8"?>
<svg width="106px" height="105px" viewBox="0 0 106 105" version="1.1" xmlns="http://www.w3.org/2000/svg" xmlns:xlink="http://www.w3.org/1999/xlink">
    <!-- Generator: Sketch 41.2 (35397) - http://www.bohemiancoding.com/sketch -->
    <title>Group 7</title>
    <desc>Created with Sketch.</desc>
    <defs></defs>
    <g id="Main-Page" stroke="none" stroke-width="1" fill="none" fill-rule="evenodd">
        <g id="Desktop-Copy-8" transform="translate(-150.000000, -1057.000000)">
            <g id="Group-7" transform="translate(150.000000, 1057.000000)">
                <rect id="Rectangle-2" fill="#000000" x="0" y="0" width="105.904762" height="104.875912" rx="30"></rect>
                <g id="blueprint-(1)" transform="translate(14.000000, 16.000000)" fill="#FFFFFF">
                    <g id="Group">
                        <path d="M73.5173224,19.612799 L61.6062988,19.612799 L68.7186491,11.5391004 C69.1135539,11.0902325 69.3139099,10.5122708 69.2825499,9.91062213 C69.250609,9.30838132 68.9910174,8.75529084 68.5513954,8.3526126 L65.4926261,5.5516302 C64.5849259,4.72021807 63.1830141,4.79660846 62.3682327,5.72217628 L50.1314129,19.612799 L28.8344333,19.612799 C28.2188465,19.612799 27.7194082,20.1214764 27.7194082,20.7497729 C27.7194082,21.3780694 28.2188465,21.8867468 28.8344333,21.8867468 L48.1284328,21.8867468 L43.1537948,27.5337169 C42.7588901,27.9819925 42.5591147,28.5605465 42.5904747,29.1621952 C42.59454,29.233256 42.6015089,29.3031325 42.6113816,29.3730089 L40.9016764,34.0873053 C40.647892,34.7872548 40.8354717,35.5618182 41.380208,36.0604287 C41.7141347,36.3665826 42.1357537,36.5252852 42.5625991,36.5252852 C42.8309021,36.5252852 43.1015279,36.4625148 43.3547317,36.3346053 L47.7724378,34.0950036 C47.8003135,34.0961878 47.8276084,34.0991488 47.8560647,34.0991488 C47.8961359,34.0991488 47.9362072,34.0979644 47.9768591,34.0955957 C48.5668932,34.0630261 49.1093066,33.7989166 49.504792,33.3500489 L59.6033189,21.8867468 L73.5173224,21.8867468 C73.7223243,21.8867468 73.8889974,22.0567007 73.8889974,22.265738 L73.8889974,66.071209 C73.8889974,66.2802464 73.7223243,66.4502003 73.5173224,66.4502003 L65.4055147,66.4502003 C64.7899279,66.4502003 64.2904896,66.9588776 64.2904896,67.5871742 C64.2904896,68.2148783 64.7899279,68.724148 65.4055147,68.724148 L73.5173224,68.724148 C74.9517558,68.724148 76.1190476,67.5338785 76.1190476,66.071209 L76.1190476,22.265738 C76.1190476,20.8024763 74.9517558,19.612799 73.5173224,19.612799 Z M67.0484344,10.03261 L65.7237614,11.5355473 L62.6911255,8.75825182 L64.0157985,7.25472229 L67.0484344,10.03261 Z M61.2009408,10.4500926 L61.8879589,11.0789812 L45.5116083,29.669096 L44.8245902,29.0396151 L61.2009408,10.4500926 Z M44.2066804,31.5302984 L45.4947668,32.7105011 L43.3924799,33.7758218 L44.2066804,31.5302984 Z M47.8572263,31.8175027 L47.1702082,31.1886141 L63.5471395,12.5984994 L64.2335769,13.227388 L47.8572263,31.8175027 Z" id="Shape"></path>
                        <path d="M60.5499288,66.4502003 L10.3987706,66.4502003 C5.89453387,66.4502003 2.23005022,62.713583 2.23005022,58.1206824 L2.23005022,57.5196259 C2.23005022,52.9267252 5.89395301,49.1907002 10.3981899,49.1907002 L12.6897988,49.1907002 C14.1248128,49.1907002 15.2915241,48.0004306 15.2915241,46.5377612 L15.2915241,21.8867468 L23.9788472,21.8867468 C24.5950149,21.8867468 25.0938724,21.3774772 25.0938724,20.7497729 C25.0938724,20.1214764 24.5950149,19.612799 23.9788472,19.612799 L15.2915241,19.612799 L15.2915241,15.6647757 C15.2915241,15.0370714 14.7926665,14.5278019 14.176499,14.5278019 C13.5609122,14.5278019 13.0614739,15.0370714 13.0614739,15.6647757 L13.0614739,46.5377612 C13.0614739,46.7467986 12.8948008,46.9167525 12.6897988,46.9167525 L10.3981899,46.9167525 C7.08912063,46.9167525 4.13546549,48.5014098 2.23005022,50.9654453 L2.23005022,10.6792638 C2.23005022,6.08636326 5.89453387,2.34974597 10.3987706,2.34974597 L12.6897988,2.34974597 C12.8948008,2.34974597 13.0614739,2.51969992 13.0614739,2.72873726 L13.0614739,10.7136099 C13.0614739,11.3419064 13.5609122,11.8505838 14.176499,11.8505838 C14.7926665,11.8505838 15.2915241,11.3419064 15.2915241,10.7136099 L15.2915241,2.72873726 C15.2915241,1.26606769 14.1248128,0.0757982572 12.6897988,0.0757982572 L10.3987706,0.0757982572 C4.66510242,0.0757982572 0,4.8321389 0,10.6792638 L0,58.1206824 C0,63.9672151 4.66510242,68.724148 10.3987706,68.724148 L60.5499288,68.724148 C61.1660963,68.724148 61.6649539,68.2148783 61.6649539,67.5871742 C61.6649539,66.9588776 61.1660963,66.4502003 60.5499288,66.4502003 Z" id="Shape"></path>
                        <path d="M59.497043,31.6161638 C54.9422817,31.6161638 51.2075283,35.2568486 50.9403868,39.8337607 L45.8072061,39.8337607 C45.1916193,39.8337607 44.692181,40.3430302 44.692181,40.9707346 L44.692181,53.9582922 C44.692181,54.5865886 45.1916193,55.0952661 45.8072061,55.0952661 L58.544045,55.0952661 C59.1602126,55.0952661 59.6590701,54.5865886 59.6590701,53.9582922 L59.6590701,49.097729 C64.3125578,49.0089028 68.0711217,45.1242421 68.0711217,40.3590188 C68.0711217,35.5381313 64.2248657,31.6161638 59.497043,31.6161638 L59.497043,31.6161638 Z M57.4296006,46.4732143 C55.4765645,45.784516 53.9538583,44.149524 53.3911191,42.1077084 L57.4296006,42.1077084 L57.4296006,46.4732143 Z M46.9222312,52.8213183 L46.9222312,42.1077084 L51.0960257,42.1077084 C51.7557489,45.4073013 54.2436487,48.0353689 57.4296006,48.8430941 L57.4296006,52.8213183 L46.9222312,52.8213183 Z M59.6596508,46.8237812 L59.6596508,40.9707346 C59.6596508,40.3430302 59.1602126,39.8337607 58.5446257,39.8337607 L53.1762445,39.8337607 C53.4393207,36.5116651 56.1728745,33.8901115 59.4976238,33.8901115 C62.9954343,33.8901115 65.8416521,36.7917634 65.8416521,40.3590188 C65.8410714,43.87061 63.0825457,46.7355472 59.6596508,46.8237812 Z" id="Shape"></path>
                        <path d="M63.6394775,49.8870967 C63.0233099,49.8870967 62.5244524,50.3957741 62.5244524,51.0240706 C62.5244524,51.6517749 63.0233099,52.1610444 63.6394775,52.1610444 L66.1198277,52.1610444 C66.7359952,52.1610444 67.2348528,51.6517749 67.2348528,51.0240706 C67.2348528,50.3957741 66.7359952,49.8870967 66.1198277,49.8870967 L63.6394775,49.8870967 Z" id="Shape"></path>
                        <path d="M67.2348528,53.9582922 C67.2348528,53.3305879 66.7359952,52.8213183 66.1198277,52.8213183 L63.6394775,52.8213183 C63.0233099,52.8213183 62.5244524,53.3305879 62.5244524,53.9582922 C62.5244524,54.5865886 63.0233099,55.0952661 63.6394775,55.0952661 L66.1198277,55.0952661 C66.7359952,55.0952661 67.2348528,54.5865886 67.2348528,53.9582922 L67.2348528,53.9582922 Z" id="Shape"></path>
                        <path d="M20.367792,31.1631506 L22.1518322,31.1631506 C22.767419,31.1631506 23.2668573,30.6544734 23.2668573,30.0261768 C23.2668573,29.3984724 22.767419,28.8892029 22.1518322,28.8892029 L20.367792,28.8892029 C19.7522053,28.8892029 19.2527669,29.3984724 19.2527669,30.0261768 C19.2527669,30.6544734 19.7522053,31.1631506 20.367792,31.1631506 Z" id="Shape"></path>
                        <path d="M20.367792,34.4757714 L28.9749728,34.4757714 C29.5911403,34.4757714 30.0899979,33.9665019 30.0899979,33.3387975 C30.0899979,32.7105011 29.5911403,32.2018237 28.9749728,32.2018237 L20.367792,32.2018237 C19.7522053,32.2018237 19.2527669,32.7105011 19.2527669,33.3387975 C19.2527669,33.9665019 19.7522053,34.4757714 20.367792,34.4757714 Z" id="Shape"></path>
                        <path d="M27.1909326,31.1631506 L28.9749728,31.1631506 C29.5911403,31.1631506 30.0899979,30.6544734 30.0899979,30.0261768 C30.0899979,29.3984724 29.5911403,28.8892029 28.9749728,28.8892029 L27.1909326,28.8892029 C26.5753459,28.8892029 26.0759075,29.3984724 26.0759075,30.0261768 C26.0759075,30.6544734 26.5753459,31.1631506 27.1909326,31.1631506 Z" id="Shape"></path>
                        <path d="M35.7981134,28.8892029 L34.0140733,28.8892029 C33.3984866,28.8892029 32.8990481,29.3984724 32.8990481,30.0261768 C32.8990481,30.6544734 33.3984866,31.1631506 34.0140733,31.1631506 L35.7981134,31.1631506 C36.4142811,31.1631506 36.9131385,30.6544734 36.9131385,30.0261768 C36.9131385,29.3984724 36.4142811,28.8892029 35.7981134,28.8892029 Z" id="Shape"></path>
                        <path d="M20.367792,37.7635208 L28.9749728,37.7635208 C29.5911403,37.7635208 30.0899979,37.2542513 30.0899979,36.626547 C30.0899979,35.9982505 29.5911403,35.4895731 28.9749728,35.4895731 L20.367792,35.4895731 C19.7522053,35.4895731 19.2527669,35.9982505 19.2527669,36.626547 C19.2527669,37.2542513 19.7522053,37.7635208 20.367792,37.7635208 Z" id="Shape"></path>
                        <path d="M19.2527669,39.9137041 C19.2527669,40.5420007 19.7522053,41.0506779 20.367792,41.0506779 L34.0140733,41.0506779 C34.6302409,41.0506779 35.1290984,40.5420007 35.1290984,39.9137041 C35.1290984,39.2859999 34.6302409,38.7767302 34.0140733,38.7767302 L20.367792,38.7767302 C19.7522053,38.7767302 19.2527669,39.2859999 19.2527669,39.9137041 Z" id="Shape"></path>
                        <path d="M36.9131385,43.2014535 C36.9131385,42.5737493 36.4142811,42.0644796 35.7981134,42.0644796 L20.367792,42.0644796 C19.7522053,42.0644796 19.2527669,42.5737493 19.2527669,43.2014535 C19.2527669,43.8297501 19.7522053,44.3384273 20.367792,44.3384273 L35.7981134,44.3384273 C36.4142811,44.3384273 36.9131385,43.8297501 36.9131385,43.2014535 Z" id="Shape"></path>
                        <path d="M24.5555244,48.498449 C24.5555244,47.8701525 24.0560861,47.3614751 23.4404993,47.3614751 L20.367792,47.3614751 C19.7522053,47.3614751 19.2527669,47.8701525 19.2527669,48.498449 L19.2527669,51.6310488 C19.2527669,52.2593452 19.7522053,52.7680226 20.367792,52.7680226 L23.4404993,52.7680226 C24.0560861,52.7680226 24.5555244,52.2593452 24.5555244,51.6310488 L24.5555244,48.498449 Z M22.3254742,50.4946672 L21.4828172,50.4946672 L21.4828172,49.6354228 L22.3254742,49.6354228 L22.3254742,50.4946672 Z" id="Shape"></path>
                        <path d="M31.9274664,48.498449 C31.9274664,47.8701525 31.4280281,47.3614751 30.8124413,47.3614751 L27.7397342,47.3614751 C27.1241473,47.3614751 26.6247091,47.8701525 26.6247091,48.498449 L26.6247091,51.6310488 C26.6247091,52.2593452 27.1241473,52.7680226 27.7397342,52.7680226 L30.8124413,52.7680226 C31.4280281,52.7680226 31.9274664,52.2593452 31.9274664,51.6310488 L31.9274664,48.498449 Z M29.6974162,50.4946672 L28.8547593,50.4946672 L28.8547593,49.6354228 L29.6974162,49.6354228 L29.6974162,50.4946672 Z" id="Shape"></path>
                        <path d="M39.2999892,48.498449 C39.2999892,47.8701525 38.8005509,47.3614751 38.1849641,47.3614751 L35.1122569,47.3614751 C34.4960894,47.3614751 33.9972318,47.8701525 33.9972318,48.498449 L33.9972318,51.6310488 C33.9972318,52.2593452 34.4960894,52.7680226 35.1122569,52.7680226 L38.1849641,52.7680226 C38.8005509,52.7680226 39.2999892,52.2593452 39.2999892,51.6310488 L39.2999892,48.498449 Z M37.069939,50.4946672 L36.227282,50.4946672 L36.227282,49.6354228 L37.069939,49.6354228 L37.069939,50.4946672 Z" id="Shape"></path>
                        <path d="M23.4404993,55.3457556 L20.367792,55.3457556 C19.7522053,55.3457556 19.2527669,55.8544329 19.2527669,56.4827295 L19.2527669,59.6153293 C19.2527669,60.2436257 19.7522053,60.7523031 20.367792,60.7523031 L23.4404993,60.7523031 C24.0560861,60.7523031 24.5555244,60.2436257 24.5555244,59.6153293 L24.5555244,56.4827295 C24.5555244,55.8544329 24.0560861,55.3457556 23.4404993,55.3457556 Z M22.3254742,58.4783554 L21.4828172,58.4783554 L21.4828172,57.6191111 L22.3254742,57.6191111 L22.3254742,58.4783554 Z" id="Shape"></path>
                        <path d="M30.8124413,55.3457556 L27.7397342,55.3457556 C27.1241473,55.3457556 26.6247091,55.8544329 26.6247091,56.4827295 L26.6247091,59.6153293 C26.6247091,60.2436257 27.1241473,60.7523031 27.7397342,60.7523031 L30.8124413,60.7523031 C31.4280281,60.7523031 31.9274664,60.2436257 31.9274664,59.6153293 L31.9274664,56.4827295 C31.9274664,55.8544329 31.4280281,55.3457556 30.8124413,55.3457556 Z M29.6974162,58.4783554 L28.8547593,58.4783554 L28.8547593,57.6191111 L29.6974162,57.6191111 L29.6974162,58.4783554 Z" id="Shape"></path>
                        <path d="M35.1122569,60.7523031 L38.1849641,60.7523031 C38.8005509,60.7523031 39.2999892,60.2436257 39.2999892,59.6153293 L39.2999892,56.4821372 C39.2999892,55.8544329 38.8005509,55.3451634 38.1849641,55.3451634 L35.1122569,55.3451634 C34.4960894,55.3451634 33.9972318,55.8544329 33.9972318,56.4821372 L33.9972318,59.6153293 C33.9972318,60.2436257 34.4960894,60.7523031 35.1122569,60.7523031 Z M36.227282,57.6197034 L37.069939,57.6197034 L37.069939,58.4783554 L36.227282,58.4783554 L36.227282,57.6197034 Z" id="Shape"></path>
                    </g>
                </g>
            </g>
        </g>
    </g>
</svg>