<?xml version="1.0" encoding="UTF-8"?>
<svg width="106px" height="105px" viewBox="0 0 106 105" version="1.1" xmlns="http://www.w3.org/2000/svg" xmlns:xlink="http://www.w3.org/1999/xlink">
    <!-- Generator: Sketch 41.2 (35397) - http://www.bohemiancoding.com/sketch -->
    <title>Group 6</title>
    <desc>Created with Sketch.</desc>
    <defs></defs>
    <g id="Main-Page" stroke="none" stroke-width="1" fill="none" fill-rule="evenodd">
        <g id="Desktop-Copy-8" transform="translate(-597.000000, -880.000000)">
            <g id="Group-6" transform="translate(597.000000, 880.000000)">
                <rect id="Rectangle-2" fill="#000000" x="0" y="0" width="105.904762" height="104.875912" rx="30"></rect>
                <g id="desktop-(1)" transform="translate(19.000000, 21.000000)" fill="#FFFFFF">
                    <g id="Layer_1">
                        <g id="Group">
                            <path d="M62.4320542,0.0753207751 L5.41318389,0.0753207751 C2.42828212,0.0753207751 0,2.60956357 0,5.72437891 L0,50.916844 C0,54.0316593 2.42828212,56.5659021 5.41318389,56.5659021 L26.3441616,56.5659021 L26.3441616,64.8511874 L18.7657042,64.8511874 C18.1677999,64.8511874 17.6830674,65.3570417 17.6830674,65.980999 C17.6830674,66.6049563 18.1677999,67.1108106 18.7657042,67.1108106 L49.0795339,67.1108106 C49.6774381,67.1108106 50.1621707,66.6049563 50.1621707,65.980999 C50.1621707,65.3570417 49.6774381,64.8511874 49.0795339,64.8511874 L41.5010765,64.8511874 L41.5010765,56.5659021 L62.4320542,56.5659021 C65.416956,56.5659021 67.8452381,54.0316593 67.8452381,50.916844 L67.8452381,5.72437891 C67.8452381,2.60956357 65.416956,0.0753207751 62.4320542,0.0753207751 Z M39.3358029,64.8511874 L28.5094352,64.8511874 L28.5094352,56.5659021 L39.3358029,56.5659021 L39.3358029,64.8511874 Z M65.6799645,50.916844 C65.6799645,52.785703 64.2230241,54.3062788 62.4320542,54.3062788 L5.41318389,54.3062788 C3.62221396,54.3062788 2.16527356,52.785703 2.16527356,50.916844 L2.16527356,47.5274091 L65.6799645,47.5274091 L65.6799645,50.916844 Z M65.6799645,45.2677858 L2.16527356,45.2677858 L2.16527356,5.72437891 C2.16527356,3.85551984 3.62221396,2.33494403 5.41318389,2.33494403 L62.4320542,2.33494403 C64.2230241,2.33494403 65.6799645,3.85551984 65.6799645,5.72437891 L65.6799645,45.2677858 Z" id="Shape"></path>
                            <path d="M62.4320542,4.59456728 L5.41318389,4.59456728 C4.81527969,4.59456728 4.33054711,5.10042161 4.33054711,5.72437891 L4.33054711,41.878351 C4.33054711,42.5023083 4.81527969,43.0081626 5.41318389,43.0081626 L52.3274443,43.0081626 C52.9253485,43.0081626 53.4100811,42.5023083 53.4100811,41.878351 C53.4100811,41.2543937 52.9253485,40.7485393 52.3274443,40.7485393 L6.49582067,40.7485393 L6.49582067,6.85419053 L61.3494174,6.85419053 L61.3494174,40.7485393 L56.6579914,40.7485393 C56.0600872,40.7485393 55.5753546,41.2543937 55.5753546,41.878351 C55.5753546,42.5023083 56.0600872,43.0081626 56.6579914,43.0081626 L62.4320542,43.0081626 C63.0299584,43.0081626 63.514691,42.5023083 63.514691,41.878351 L63.514691,5.72437891 C63.514691,5.10042161 63.0299584,4.59456728 62.4320542,4.59456728 Z" id="Shape"></path>
                        </g>
                    </g>
                </g>
            </g>
        </g>
    </g>
</svg>