<?xml version="1.0" encoding="UTF-8"?>
<svg width="421px" height="431px" viewBox="0 0 421 431" version="1.1" xmlns="http://www.w3.org/2000/svg" xmlns:xlink="http://www.w3.org/1999/xlink">
    <!-- Generator: Sketch 41.2 (35397) - http://www.bohemiancoding.com/sketch -->
    <title>Group</title>
    <desc>Created with Sketch.</desc>
    <defs></defs>
    <g id="Main-Page" stroke="none" stroke-width="1" fill="none" fill-rule="evenodd">
        <g id="Desktop-Copy-8" transform="translate(-303.000000, -125.000000)">
            <g id="Group" transform="translate(294.000000, 125.000000)">
                <rect id="Rectangle" fill="#FFFFFF" x="59.3289474" y="0" width="318.128655" height="318.232044" rx="80"></rect>
                <path d="M14.5921053,347.879834 L14.5921053,392.258287 L20.494883,392.258287 L20.494883,373.301105 L34.9100877,373.301105 C36.3599,373.301105 37.5197325,373.518644 38.3896199,373.953729 C39.2595073,374.388814 39.9636913,374.968919 40.502193,375.694061 C41.0406947,376.419203 41.4342093,377.268642 41.6827485,378.242403 C41.9312878,379.216165 42.1384007,380.241707 42.3040936,381.319061 C42.5112096,382.396414 42.6354774,383.49447 42.6769006,384.61326 C42.7183238,385.73205 42.7597464,386.77831 42.8011696,387.752072 C42.8425928,388.725834 42.9357936,389.60635 43.0807749,390.393646 C43.2257561,391.180943 43.5053586,391.802484 43.9195906,392.258287 L50.505848,392.258287 C49.8844998,391.512427 49.4184957,390.652629 49.1078216,389.678867 C48.7971476,388.705106 48.5589677,387.679563 48.3932749,386.60221 C48.227582,385.524856 48.1240255,384.426801 48.0826023,383.308011 C48.0411791,382.189221 47.9790452,381.091166 47.8961988,380.013812 C47.7719292,378.936459 47.5958832,377.900557 47.3680556,376.906077 C47.1402279,375.911597 46.7881359,375.010363 46.311769,374.202348 C45.8354021,373.394333 45.193352,372.700279 44.3855994,372.120166 C43.5778468,371.540052 42.5319265,371.125692 41.247807,370.877072 L41.247807,370.752762 C43.9403156,370.006902 45.8975329,368.618795 47.1195175,366.588398 C48.3415022,364.558001 48.9524854,362.196146 48.9524854,359.502762 C48.9524854,355.897772 47.761586,353.059403 45.3797515,350.987569 C42.9979169,348.915735 39.6944656,347.879834 35.4692982,347.879834 L14.5921053,347.879834 Z M32.7975146,368.328729 L20.494883,368.328729 L20.494883,352.85221 L35.1586257,352.85221 C37.9339807,352.85221 39.9429762,353.556623 41.1856725,354.96547 C42.4283688,356.374316 43.0497076,358.197503 43.0497076,360.435083 C43.0497076,362.051113 42.7701051,363.366708 42.2108918,364.381906 C41.6516785,365.397105 40.9060719,366.205107 39.9740497,366.805939 C39.0420275,367.406771 37.9546846,367.810772 36.7119883,368.017956 C35.469292,368.225139 34.1644805,368.328729 32.7975146,368.328729 Z M54.2960526,370.069061 C54.2960526,366.919874 54.7413454,363.936478 55.6319444,361.118785 C56.5225434,358.301091 57.827355,355.835646 59.5464181,353.722376 C61.2654813,351.609105 63.3987446,349.930945 65.9462719,348.687845 C68.4937993,347.444745 71.4244474,346.823204 74.7383041,346.823204 C78.0521608,346.823204 80.9828089,347.444745 83.5303363,348.687845 C86.0778636,349.930945 88.2111269,351.609105 89.9301901,353.722376 C91.6492532,355.835646 92.9540647,358.301091 93.8446637,361.118785 C94.7352627,363.936478 95.1805556,366.919874 95.1805556,370.069061 C95.1805556,373.218248 94.7352627,376.201643 93.8446637,379.019337 C92.9540647,381.837031 91.6492532,384.302476 89.9301901,386.415746 C88.2111269,388.529016 86.0778636,390.196817 83.5303363,391.419199 C80.9828089,392.641581 78.0521608,393.252762 74.7383041,393.252762 C71.4244474,393.252762 68.4937993,392.641581 65.9462719,391.419199 C63.3987446,390.196817 61.2654813,388.529016 59.5464181,386.415746 C57.827355,384.302476 56.5225434,381.837031 55.6319444,379.019337 C54.7413454,376.201643 54.2960526,373.218248 54.2960526,370.069061 Z M126.812935,391.015193 L101.704678,391.015193 L101.704678,347.879834 L100.461988,347.879834 L100.461988,392.258287 L126.962354,392.258287 L127.676901,392.258287 L134.073288,376.406848 L155.603611,376.406848 L162.037281,392.258287 L163.40424,392.258287 L145.88231,347.879834 L144.266813,347.879834 L126.812935,391.015193 Z M55.5387427,370.069061 C55.5801659,373.259684 56.04617,376.201644 56.936769,378.895028 C57.827368,381.588411 59.0907569,383.90883 60.7269737,385.856354 C62.3631904,387.803877 64.3618303,389.326652 66.7229532,390.424724 C69.0840761,391.522796 71.755833,392.071823 74.7383041,392.071823 C77.7207751,392.071823 80.3925321,391.522796 82.753655,390.424724 C85.1147779,389.326652 87.1134177,387.803877 88.7496345,385.856354 C90.3858513,383.90883 91.6492402,381.588411 92.5398392,378.895028 C93.4304382,376.201644 93.8964423,373.259684 93.9378655,370.069061 C93.8964423,366.878437 93.4304382,363.936478 92.5398392,361.243094 C91.6492402,358.54971 90.3858513,356.229292 88.7496345,354.281768 C87.1134177,352.334244 85.1147779,350.81147 82.753655,349.713398 C80.3925321,348.615326 77.7207751,348.066298 74.7383041,348.066298 C71.755833,348.066298 69.0840761,348.615326 66.7229532,349.713398 C64.3618303,350.81147 62.3631904,352.334244 60.7269737,354.281768 C59.0907569,356.229292 57.827368,358.54971 56.936769,361.243094 C56.04617,363.936478 55.5801659,366.878437 55.5387427,370.069061 Z M155.699561,376.40884 L134.076754,376.40884 L145.012427,349.122928 L145.136696,349.122928 L155.699561,376.40884 Z M166.076023,347.879834 L166.076023,392.258287 L167.318713,392.258287 L167.318713,349.433702 L167.442982,349.433702 L197.76462,392.258287 L199.628655,392.258287 L199.628655,347.879834 L198.385965,347.879834 L198.385965,390.70442 L198.261696,390.70442 L167.940058,347.879834 L166.076023,347.879834 Z M207.581871,391.015193 L207.581871,349.122928 L221.562135,349.122928 C223.798988,349.122928 225.984029,349.433699 228.117325,350.055249 C230.25062,350.676799 232.166415,351.785213 233.864766,353.380525 C235.563118,354.975837 236.930063,357.120152 237.965643,359.813536 C239.001224,362.50692 239.519006,365.925394 239.519006,370.069061 C239.519006,373.632615 239.011579,376.729959 237.996711,379.361188 C236.981842,381.992416 235.594185,384.167809 233.833699,385.887431 C232.073212,387.607053 230.022794,388.89157 227.682383,389.741022 C225.341972,390.590474 222.866972,391.015193 220.25731,391.015193 L207.581871,391.015193 Z M206.339181,347.879834 L206.339181,392.258287 L219.946637,392.258287 C222.639146,392.258287 225.228058,391.843927 227.71345,391.015193 C230.198843,390.18646 232.414951,388.891583 234.361842,387.130525 C236.308733,385.369466 237.86208,383.080125 239.02193,380.262431 C240.18178,377.444737 240.761696,374.046981 240.761696,370.069061 C240.761696,365.71821 240.192135,362.113274 239.052997,359.254144 C237.913859,356.395013 236.443357,354.12639 234.641447,352.448204 C232.839538,350.770019 230.809831,349.589092 228.552266,348.905387 C226.294701,348.221682 224.068237,347.879834 221.872807,347.879834 L206.339181,347.879834 Z M265.366959,347.879834 L265.366959,392.258287 L271.269737,392.258287 L271.269737,371.933702 L294.63231,371.933702 L294.63231,392.258287 L300.535088,392.258287 L300.535088,347.879834 L294.63231,347.879834 L294.63231,366.961326 L271.269737,366.961326 L271.269737,347.879834 L265.366959,347.879834 Z M340.052632,347.879834 L340.052632,375.725138 C340.052632,381.070469 338.830665,385.131202 336.386696,387.907459 C333.942727,390.683716 330.15256,392.071823 325.016082,392.071823 C319.879604,392.071823 316.089437,390.683716 313.645468,387.907459 C311.201499,385.131202 309.979532,381.070469 309.979532,375.725138 L309.979532,347.879834 L308.736842,347.879834 L308.736842,375.725138 C308.736842,381.692019 310.124499,386.104958 312.899854,388.964088 C315.675209,391.823219 319.713911,393.252762 325.016082,393.252762 C330.318253,393.252762 334.356955,391.823219 337.13231,388.964088 C339.907665,386.104958 341.295322,381.692019 341.295322,375.725138 L341.295322,347.879834 L340.052632,347.879834 Z M349.248538,369.758287 L380.315789,369.758287 L380.315789,392.258287 L381.55848,392.258287 L381.55848,347.879834 L380.315789,347.879834 L380.315789,368.515193 L349.248538,368.515193 L349.248538,347.879834 L348.005848,347.879834 L348.005848,392.258287 L349.248538,392.258287 L349.248538,369.758287 Z M388.269006,347.879834 L388.269006,392.258287 L389.511696,392.258287 L389.511696,349.433702 L389.635965,349.433702 L419.957602,392.258287 L421.821637,392.258287 L421.821637,347.879834 L420.578947,347.879834 L420.578947,390.70442 L420.454678,390.70442 L390.133041,347.879834 L388.269006,347.879834 Z" id="ROLAND-HUHN" fill="#FFFFFF"></path>
                <text id="BUILDING-DIGITAL-PRO" font-family="Lato-Heavy, Lato" font-size="29" font-weight="600" fill="#EB503E">
                    <tspan x="7.82175" y="429.252762">BUILDING DIGITAL PRODUCTS</tspan>
                </text>
                <ellipse id="Oval" fill="#4990E2" cx="183.522615" cy="186.388725" rx="70.1366498" ry="70.1594437"></ellipse>
                <ellipse id="Oval" fill="#F14723" style="mix-blend-mode: hard-light;" cx="219.560626" cy="132.31414" rx="70.1366498" ry="70.1594437"></ellipse>
                <ellipse id="Oval" fill="#7ED321" style="mix-blend-mode: multiply;" cx="253.734603" cy="186.388725" rx="70.1366498" ry="70.1594437"></ellipse>
                <path d="M289.414725,125.97353 C289.601746,128.062054 289.697276,130.176937 289.697276,132.31414 C289.697276,171.062131 258.296029,202.473584 219.560626,202.473584 C206.532337,202.473584 194.333724,198.920162 183.880505,192.729335 C183.693484,190.640821 183.597953,188.525933 183.597953,186.388725 C183.597953,147.640735 214.999201,116.229282 253.734603,116.229282 C266.762893,116.229282 278.961506,119.782703 289.414725,125.97353 Z" id="Combined-Shape" fill="#F8E81C" style="mix-blend-mode: hard-light;"></path>
            </g>
        </g>
    </g>
</svg>