<?xml version="1.0" encoding="UTF-8"?>
<svg width="421px" height="430px" viewBox="0 0 421 430" version="1.1" xmlns="http://www.w3.org/2000/svg" xmlns:xlink="http://www.w3.org/1999/xlink">
    <!-- Generator: Sketch 41.2 (35397) - http://www.bohemiancoding.com/sketch -->
    <title>Group</title>
    <desc>Created with Sketch.</desc>
    <defs></defs>
    <g id="Main-Page" stroke="none" stroke-width="1" fill="none" fill-rule="evenodd">
        <g id="Desktop-Copy-8" transform="translate(-304.000000, -125.000000)">
            <g id="Group" transform="translate(304.000000, 125.000000)">
                <rect id="Rectangle" fill="#FFFFFF" x="49.3289474" y="0" width="318.128655" height="318.232044" rx="80"></rect>
                <path d="M4.59210526,347.879834 L4.59210526,392.258287 L10.494883,392.258287 L10.494883,373.301105 L24.9100877,373.301105 C26.3599,373.301105 27.5197325,373.518644 28.3896199,373.953729 C29.2595073,374.388814 29.9636913,374.968919 30.502193,375.694061 C31.0406947,376.419203 31.4342093,377.268642 31.6827485,378.242403 C31.9312878,379.216165 32.1384007,380.241707 32.3040936,381.319061 C32.5112096,382.396414 32.6354774,383.49447 32.6769006,384.61326 C32.7183238,385.73205 32.7597464,386.77831 32.8011696,387.752072 C32.8425928,388.725834 32.9357936,389.60635 33.0807749,390.393646 C33.2257561,391.180943 33.5053586,391.802484 33.9195906,392.258287 L40.505848,392.258287 C39.8844998,391.512427 39.4184957,390.652629 39.1078216,389.678867 C38.7971476,388.705106 38.5589677,387.679563 38.3932749,386.60221 C38.227582,385.524856 38.1240255,384.426801 38.0826023,383.308011 C38.0411791,382.189221 37.9790452,381.091166 37.8961988,380.013812 C37.7719292,378.936459 37.5958832,377.900557 37.3680556,376.906077 C37.1402279,375.911597 36.7881359,375.010363 36.311769,374.202348 C35.8354021,373.394333 35.193352,372.700279 34.3855994,372.120166 C33.5778468,371.540052 32.5319265,371.125692 31.247807,370.877072 L31.247807,370.752762 C33.9403156,370.006902 35.8975329,368.618795 37.1195175,366.588398 C38.3415022,364.558001 38.9524854,362.196146 38.9524854,359.502762 C38.9524854,355.897772 37.761586,353.059403 35.3797515,350.987569 C32.9979169,348.915735 29.6944656,347.879834 25.4692982,347.879834 L4.59210526,347.879834 Z M22.7975146,368.328729 L10.494883,368.328729 L10.494883,352.85221 L25.1586257,352.85221 C27.9339807,352.85221 29.9429762,353.556623 31.1856725,354.96547 C32.4283688,356.374316 33.0497076,358.197503 33.0497076,360.435083 C33.0497076,362.051113 32.7701051,363.366708 32.2108918,364.381906 C31.6516785,365.397105 30.9060719,366.205107 29.9740497,366.805939 C29.0420275,367.406771 27.9546846,367.810772 26.7119883,368.017956 C25.469292,368.225139 24.1644805,368.328729 22.7975146,368.328729 Z M44.2960526,370.069061 C44.2960526,366.919874 44.7413454,363.936478 45.6319444,361.118785 C46.5225434,358.301091 47.827355,355.835646 49.5464181,353.722376 C51.2654813,351.609105 53.3987446,349.930945 55.9462719,348.687845 C58.4937993,347.444745 61.4244474,346.823204 64.7383041,346.823204 C68.0521608,346.823204 70.9828089,347.444745 73.5303363,348.687845 C76.0778636,349.930945 78.2111269,351.609105 79.9301901,353.722376 C81.6492532,355.835646 82.9540647,358.301091 83.8446637,361.118785 C84.7352627,363.936478 85.1805556,366.919874 85.1805556,370.069061 C85.1805556,373.218248 84.7352627,376.201643 83.8446637,379.019337 C82.9540647,381.837031 81.6492532,384.302476 79.9301901,386.415746 C78.2111269,388.529016 76.0778636,390.196817 73.5303363,391.419199 C70.9828089,392.641581 68.0521608,393.252762 64.7383041,393.252762 C61.4244474,393.252762 58.4937993,392.641581 55.9462719,391.419199 C53.3987446,390.196817 51.2654813,388.529016 49.5464181,386.415746 C47.827355,384.302476 46.5225434,381.837031 45.6319444,379.019337 C44.7413454,376.201643 44.2960526,373.218248 44.2960526,370.069061 Z M116.812935,391.015193 L91.7046784,391.015193 L91.7046784,347.879834 L90.4619883,347.879834 L90.4619883,392.258287 L116.962354,392.258287 L117.676901,392.258287 L124.073288,376.406848 L145.603611,376.406848 L152.037281,392.258287 L153.40424,392.258287 L135.88231,347.879834 L134.266813,347.879834 L116.812935,391.015193 Z M45.5387427,370.069061 C45.5801659,373.259684 46.04617,376.201644 46.936769,378.895028 C47.827368,381.588411 49.0907569,383.90883 50.7269737,385.856354 C52.3631904,387.803877 54.3618303,389.326652 56.7229532,390.424724 C59.0840761,391.522796 61.755833,392.071823 64.7383041,392.071823 C67.7207751,392.071823 70.3925321,391.522796 72.753655,390.424724 C75.1147779,389.326652 77.1134177,387.803877 78.7496345,385.856354 C80.3858513,383.90883 81.6492402,381.588411 82.5398392,378.895028 C83.4304382,376.201644 83.8964423,373.259684 83.9378655,370.069061 C83.8964423,366.878437 83.4304382,363.936478 82.5398392,361.243094 C81.6492402,358.54971 80.3858513,356.229292 78.7496345,354.281768 C77.1134177,352.334244 75.1147779,350.81147 72.753655,349.713398 C70.3925321,348.615326 67.7207751,348.066298 64.7383041,348.066298 C61.755833,348.066298 59.0840761,348.615326 56.7229532,349.713398 C54.3618303,350.81147 52.3631904,352.334244 50.7269737,354.281768 C49.0907569,356.229292 47.827368,358.54971 46.936769,361.243094 C46.04617,363.936478 45.5801659,366.878437 45.5387427,370.069061 Z M145.699561,376.40884 L124.076754,376.40884 L135.012427,349.122928 L135.136696,349.122928 L145.699561,376.40884 Z M156.076023,347.879834 L156.076023,392.258287 L157.318713,392.258287 L157.318713,349.433702 L157.442982,349.433702 L187.76462,392.258287 L189.628655,392.258287 L189.628655,347.879834 L188.385965,347.879834 L188.385965,390.70442 L188.261696,390.70442 L157.940058,347.879834 L156.076023,347.879834 Z M197.581871,391.015193 L197.581871,349.122928 L211.562135,349.122928 C213.798988,349.122928 215.984029,349.433699 218.117325,350.055249 C220.25062,350.676799 222.166415,351.785213 223.864766,353.380525 C225.563118,354.975837 226.930063,357.120152 227.965643,359.813536 C229.001224,362.50692 229.519006,365.925394 229.519006,370.069061 C229.519006,373.632615 229.011579,376.729959 227.996711,379.361188 C226.981842,381.992416 225.594185,384.167809 223.833699,385.887431 C222.073212,387.607053 220.022794,388.89157 217.682383,389.741022 C215.341972,390.590474 212.866972,391.015193 210.25731,391.015193 L197.581871,391.015193 Z M196.339181,347.879834 L196.339181,392.258287 L209.946637,392.258287 C212.639146,392.258287 215.228058,391.843927 217.71345,391.015193 C220.198843,390.18646 222.414951,388.891583 224.361842,387.130525 C226.308733,385.369466 227.86208,383.080125 229.02193,380.262431 C230.18178,377.444737 230.761696,374.046981 230.761696,370.069061 C230.761696,365.71821 230.192135,362.113274 229.052997,359.254144 C227.913859,356.395013 226.443357,354.12639 224.641447,352.448204 C222.839538,350.770019 220.809831,349.589092 218.552266,348.905387 C216.294701,348.221682 214.068237,347.879834 211.872807,347.879834 L196.339181,347.879834 Z M255.366959,347.879834 L255.366959,392.258287 L261.269737,392.258287 L261.269737,371.933702 L284.63231,371.933702 L284.63231,392.258287 L290.535088,392.258287 L290.535088,347.879834 L284.63231,347.879834 L284.63231,366.961326 L261.269737,366.961326 L261.269737,347.879834 L255.366959,347.879834 Z M330.052632,347.879834 L330.052632,375.725138 C330.052632,381.070469 328.830665,385.131202 326.386696,387.907459 C323.942727,390.683716 320.15256,392.071823 315.016082,392.071823 C309.879604,392.071823 306.089437,390.683716 303.645468,387.907459 C301.201499,385.131202 299.979532,381.070469 299.979532,375.725138 L299.979532,347.879834 L298.736842,347.879834 L298.736842,375.725138 C298.736842,381.692019 300.124499,386.104958 302.899854,388.964088 C305.675209,391.823219 309.713911,393.252762 315.016082,393.252762 C320.318253,393.252762 324.356955,391.823219 327.13231,388.964088 C329.907665,386.104958 331.295322,381.692019 331.295322,375.725138 L331.295322,347.879834 L330.052632,347.879834 Z M339.248538,369.758287 L370.315789,369.758287 L370.315789,392.258287 L371.55848,392.258287 L371.55848,347.879834 L370.315789,347.879834 L370.315789,368.515193 L339.248538,368.515193 L339.248538,347.879834 L338.005848,347.879834 L338.005848,392.258287 L339.248538,392.258287 L339.248538,369.758287 Z M378.269006,347.879834 L378.269006,392.258287 L379.511696,392.258287 L379.511696,349.433702 L379.635965,349.433702 L409.957602,392.258287 L411.821637,392.258287 L411.821637,347.879834 L410.578947,347.879834 L410.578947,390.70442 L410.454678,390.70442 L380.133041,347.879834 L378.269006,347.879834 Z" id="ROLAND-HUHN" fill="#FFFFFF"></path>
                <path d="M8.10225,425.917762 C8.79825348,425.917762 9.37099775,425.83318 9.8205,425.664012 C10.2700022,425.494845 10.630082,425.270097 10.90075,424.989762 C11.171418,424.709428 11.3599161,424.388014 11.46625,424.025512 C11.5725839,423.663011 11.62575,423.288431 11.62575,422.901762 C11.62575,422.476427 11.5629173,422.094597 11.43725,421.756262 C11.3115827,421.417927 11.1085847,421.130347 10.82825,420.893512 C10.5479153,420.656678 10.1830022,420.47543 9.7335,420.349762 C9.28399775,420.224095 8.73058662,420.161262 8.07325,420.161262 L4.37575,420.161262 L4.37575,425.917762 L8.10225,425.917762 Z M4.37575,411.519262 L4.37575,417.203262 L7.23225,417.203262 C7.84125305,417.203262 8.38258097,417.152513 8.85625,417.051012 C9.32991904,416.949512 9.72624841,416.787597 10.04525,416.565262 C10.3642516,416.342928 10.6083325,416.050514 10.7775,415.688012 C10.9466675,415.325511 11.03125,414.888098 11.03125,414.375762 C11.03125,413.85376 10.9611674,413.409098 10.821,413.041762 C10.6808326,412.674427 10.4657515,412.379597 10.17575,412.157262 C9.88574855,411.934928 9.51841889,411.773013 9.07375,411.671512 C8.62908111,411.570012 8.10225305,411.519262 7.49325,411.519262 L4.37575,411.519262 Z M7.49325,408.213262 C8.90459039,408.213262 10.110495,408.346178 11.111,408.612012 C12.111505,408.877847 12.9283302,409.254843 13.5615,409.743012 C14.1946698,410.231182 14.6562486,410.823259 14.94625,411.519262 C15.2362515,412.215266 15.38125,412.993425 15.38125,413.853762 C15.38125,414.337098 15.3111674,414.801094 15.171,415.245762 C15.0308326,415.690431 14.8133348,416.10851 14.5185,416.500012 C14.2236652,416.891514 13.8442523,417.246761 13.38025,417.565762 C12.9162477,417.884764 12.3652532,418.155428 11.72725,418.377762 C13.1579238,418.716097 14.2164132,419.267092 14.90275,420.030762 C15.5890868,420.794433 15.93225,421.785256 15.93225,423.003262 C15.93225,423.8926 15.7606684,424.719092 15.4175,425.482762 C15.0743316,426.246433 14.5740866,426.908593 13.91675,427.469262 C13.2594134,428.029932 12.4498381,428.467344 11.488,428.781512 C10.5261619,429.095681 9.42175624,429.252762 8.17475,429.252762 L0.02575,429.252762 L0.02575,408.213262 L7.49325,408.213262 Z M27.88025,425.772762 C28.5859202,425.772762 29.2190805,425.654347 29.77975,425.417512 C30.3404195,425.180678 30.8140814,424.844765 31.20075,424.409762 C31.5874186,423.97476 31.882249,423.447932 32.08525,422.829262 C32.288251,422.210593 32.38975,421.5146 32.38975,420.741262 L32.38975,408.213262 L36.73975,408.213262 L36.73975,420.741262 C36.73975,422.017269 36.5343354,423.18934 36.1235,424.257512 C35.7126646,425.325684 35.1254205,426.246425 34.36175,427.019762 C33.5980795,427.7931 32.6700888,428.39726 31.57775,428.832262 C30.4854112,429.267265 29.2529235,429.484762 27.88025,429.484762 C26.5075765,429.484762 25.2726722,429.267265 24.1755,428.832262 C23.0783278,428.39726 22.1479205,427.7931 21.38425,427.019762 C20.6205795,426.246425 20.0333354,425.325684 19.6225,424.257512 C19.2116646,423.18934 19.00625,422.017269 19.00625,420.741262 L19.00625,408.213262 L23.35625,408.213262 L23.35625,420.741262 C23.35625,421.5146 23.457749,422.210593 23.66075,422.829262 C23.863751,423.447932 24.1585814,423.97476 24.54525,424.409762 C24.9319186,424.844765 25.4055805,425.180678 25.96625,425.417512 C26.5269195,425.654347 27.1649131,425.772762 27.88025,425.772762 Z M45.26575,429.252762 L40.88675,429.252762 L40.88675,408.213262 L45.26575,408.213262 L45.26575,429.252762 Z M62.15825,425.714762 L62.15825,429.252762 L49.67375,429.252762 L49.67375,408.213262 L54.02375,408.213262 L54.02375,425.714762 L62.15825,425.714762 Z M83.67625,418.725762 C83.67625,420.26277 83.4176693,421.676506 82.9005,422.967012 C82.3833307,424.257519 81.6535047,425.366758 80.711,426.294762 C79.7684953,427.222767 78.63509,427.94776 77.31075,428.469762 C75.98641,428.991765 74.5170914,429.252762 72.90275,429.252762 L64.81175,429.252762 L64.81175,408.213262 L72.90275,408.213262 C74.5170914,408.213262 75.98641,408.47426 77.31075,408.996262 C78.63509,409.518265 79.7684953,410.245674 80.711,411.178512 C81.6535047,412.11135 82.3833307,413.220589 82.9005,414.506262 C83.4176693,415.791936 83.67625,417.198421 83.67625,418.725762 Z M79.21025,418.725762 C79.21025,417.623757 79.0652515,416.632933 78.77525,415.753262 C78.4852486,414.873591 78.069586,414.129265 77.52825,413.520262 C76.986914,412.911259 76.3271706,412.442431 75.549,412.113762 C74.7708294,411.785094 73.8887549,411.620762 72.90275,411.620762 L69.19075,411.620762 L69.19075,425.845262 L72.90275,425.845262 C73.8887549,425.845262 74.7708294,425.683347 75.549,425.359512 C76.3271706,425.035677 76.986914,424.566849 77.52825,423.953012 C78.069586,423.339176 78.4852486,422.592433 78.77525,421.712762 C79.0652515,420.833091 79.21025,419.837435 79.21025,418.725762 Z M91.25975,429.252762 L86.88075,429.252762 L86.88075,408.213262 L91.25975,408.213262 L91.25975,429.252762 Z M113.69125,408.213262 L113.69125,429.252762 L111.44375,429.252762 C111.105415,429.252762 110.820251,429.19718 110.58825,429.086012 C110.356249,428.974845 110.129084,428.78393 109.90675,428.513262 L99.42325,415.173262 C99.4522501,415.511597 99.4739999,415.845094 99.4885,416.173762 C99.5030001,416.502431 99.51025,416.806928 99.51025,417.087262 L99.51025,429.252762 L95.66775,429.252762 L95.66775,408.213262 L97.95875,408.213262 C98.1424176,408.213262 98.2994993,408.220512 98.43,408.235012 C98.5605007,408.249513 98.6789161,408.283345 98.78525,408.336512 C98.8915839,408.389679 98.9930829,408.459762 99.08975,408.546762 C99.1864172,408.633763 99.2927494,408.749762 99.40875,408.894762 L109.96475,422.292762 C109.926083,421.925427 109.897083,421.570181 109.87775,421.227012 C109.858417,420.883844 109.84875,420.557597 109.84875,420.248262 L109.84875,408.213262 L113.69125,408.213262 Z M128.33625,418.537262 L135.55725,418.537262 L135.55725,427.222762 C134.484245,428.005766 133.341173,428.578511 132.128,428.941012 C130.914827,429.303514 129.63159,429.484762 128.27825,429.484762 C126.547908,429.484762 124.981924,429.216515 123.58025,428.680012 C122.178576,428.14351 120.979922,427.396767 119.98425,426.439762 C118.988578,425.482758 118.220086,424.346936 117.67875,423.032262 C117.137414,421.717589 116.86675,420.282104 116.86675,418.725762 C116.86675,417.150088 117.125331,415.704936 117.6425,414.390262 C118.159669,413.075589 118.896745,411.944601 119.85375,410.997262 C120.810755,410.049924 121.968327,409.310432 123.3265,408.778762 C124.684673,408.247093 126.204742,407.981262 127.88675,407.981262 C128.756754,407.981262 129.568746,408.051345 130.32275,408.191512 C131.076754,408.33168 131.772747,408.525011 132.41075,408.771512 C133.048753,409.018014 133.633581,409.310427 134.16525,409.648762 C134.696919,409.987097 135.180248,410.35926 135.61525,410.765262 L134.35375,412.708262 C134.160416,413.017597 133.909085,413.206095 133.59975,413.273762 C133.290415,413.341429 132.952085,413.264097 132.58475,413.041762 C132.236748,412.829095 131.896002,412.63818 131.5625,412.469012 C131.228998,412.299845 130.873752,412.15243 130.49675,412.026762 C130.119748,411.901095 129.708919,411.804429 129.26425,411.736762 C128.819581,411.669095 128.307253,411.635262 127.72725,411.635262 C126.750912,411.635262 125.866421,411.804427 125.07375,412.142762 C124.281079,412.481097 123.606836,412.959593 123.051,413.578262 C122.495164,414.196932 122.067418,414.941258 121.76775,415.811262 C121.468082,416.681267 121.31825,417.652757 121.31825,418.725762 C121.31825,419.885768 121.482582,420.922508 121.81125,421.836012 C122.139918,422.749517 122.603914,423.520426 123.20325,424.148762 C123.802586,424.777099 124.520329,425.255594 125.3565,425.584262 C126.192671,425.912931 127.123078,426.077262 128.14775,426.077262 C128.843753,426.077262 129.464831,426.00718 130.011,425.867012 C130.557169,425.726845 131.091247,425.53593 131.61325,425.294262 L131.61325,421.756262 L129.23525,421.756262 C128.954915,421.756262 128.735001,421.681347 128.5755,421.531512 C128.415999,421.381678 128.33625,421.190764 128.33625,420.958762 L128.33625,418.537262 Z M164.86175,418.725762 C164.86175,420.26277 164.603169,421.676506 164.086,422.967012 C163.568831,424.257519 162.839005,425.366758 161.8965,426.294762 C160.953995,427.222767 159.82059,427.94776 158.49625,428.469762 C157.17191,428.991765 155.702591,429.252762 154.08825,429.252762 L145.99725,429.252762 L145.99725,408.213262 L154.08825,408.213262 C155.702591,408.213262 157.17191,408.47426 158.49625,408.996262 C159.82059,409.518265 160.953995,410.245674 161.8965,411.178512 C162.839005,412.11135 163.568831,413.220589 164.086,414.506262 C164.603169,415.791936 164.86175,417.198421 164.86175,418.725762 Z M160.39575,418.725762 C160.39575,417.623757 160.250751,416.632933 159.96075,415.753262 C159.670749,414.873591 159.255086,414.129265 158.71375,413.520262 C158.172414,412.911259 157.512671,412.442431 156.7345,412.113762 C155.956329,411.785094 155.074255,411.620762 154.08825,411.620762 L150.37625,411.620762 L150.37625,425.845262 L154.08825,425.845262 C155.074255,425.845262 155.956329,425.683347 156.7345,425.359512 C157.512671,425.035677 158.172414,424.566849 158.71375,423.953012 C159.255086,423.339176 159.670749,422.592433 159.96075,421.712762 C160.250751,420.833091 160.39575,419.837435 160.39575,418.725762 Z M172.44525,429.252762 L168.06625,429.252762 L168.06625,408.213262 L172.44525,408.213262 L172.44525,429.252762 Z M187.09025,418.537262 L194.31125,418.537262 L194.31125,427.222762 C193.238245,428.005766 192.095173,428.578511 190.882,428.941012 C189.668827,429.303514 188.38559,429.484762 187.03225,429.484762 C185.301908,429.484762 183.735924,429.216515 182.33425,428.680012 C180.932576,428.14351 179.733922,427.396767 178.73825,426.439762 C177.742578,425.482758 176.974086,424.346936 176.43275,423.032262 C175.891414,421.717589 175.62075,420.282104 175.62075,418.725762 C175.62075,417.150088 175.879331,415.704936 176.3965,414.390262 C176.913669,413.075589 177.650745,411.944601 178.60775,410.997262 C179.564755,410.049924 180.722327,409.310432 182.0805,408.778762 C183.438673,408.247093 184.958742,407.981262 186.64075,407.981262 C187.510754,407.981262 188.322746,408.051345 189.07675,408.191512 C189.830754,408.33168 190.526747,408.525011 191.16475,408.771512 C191.802753,409.018014 192.387581,409.310427 192.91925,409.648762 C193.450919,409.987097 193.934248,410.35926 194.36925,410.765262 L193.10775,412.708262 C192.914416,413.017597 192.663085,413.206095 192.35375,413.273762 C192.044415,413.341429 191.706085,413.264097 191.33875,413.041762 C190.990748,412.829095 190.650002,412.63818 190.3165,412.469012 C189.982998,412.299845 189.627752,412.15243 189.25075,412.026762 C188.873748,411.901095 188.462919,411.804429 188.01825,411.736762 C187.573581,411.669095 187.061253,411.635262 186.48125,411.635262 C185.504912,411.635262 184.620421,411.804427 183.82775,412.142762 C183.035079,412.481097 182.360836,412.959593 181.805,413.578262 C181.249164,414.196932 180.821418,414.941258 180.52175,415.811262 C180.222082,416.681267 180.07225,417.652757 180.07225,418.725762 C180.07225,419.885768 180.236582,420.922508 180.56525,421.836012 C180.893918,422.749517 181.357914,423.520426 181.95725,424.148762 C182.556586,424.777099 183.274329,425.255594 184.1105,425.584262 C184.946671,425.912931 185.877078,426.077262 186.90175,426.077262 C187.597753,426.077262 188.218831,426.00718 188.765,425.867012 C189.311169,425.726845 189.845247,425.53593 190.36725,425.294262 L190.36725,421.756262 L187.98925,421.756262 C187.708915,421.756262 187.489001,421.681347 187.3295,421.531512 C187.169999,421.381678 187.09025,421.190764 187.09025,420.958762 L187.09025,418.537262 Z M202.24275,429.252762 L197.86375,429.252762 L197.86375,408.213262 L202.24275,408.213262 L202.24275,429.252762 Z M221.54225,411.722262 L215.39425,411.722262 L215.39425,429.252762 L211.02975,429.252762 L211.02975,411.722262 L204.88175,411.722262 L204.88175,408.213262 L221.54225,408.213262 L221.54225,411.722262 Z M235.27375,421.263262 L232.99725,414.825262 C232.861916,414.486927 232.719334,414.090598 232.5695,413.636262 C232.419666,413.181927 232.277084,412.688932 232.14175,412.157262 C232.006416,412.698598 231.863834,413.198843 231.714,413.658012 C231.564166,414.117181 231.421584,414.515927 231.28625,414.854262 L229.02425,421.263262 L235.27375,421.263262 Z M242.58175,429.252762 L239.20325,429.252762 C238.826248,429.252762 238.519335,429.163347 238.2825,428.984512 C238.045665,428.805678 237.869251,428.576097 237.75325,428.295762 L236.33225,424.279262 L227.95125,424.279262 L226.53025,428.295762 C226.433583,428.53743 226.264418,428.757345 226.02275,428.955512 C225.781082,429.15368 225.476585,429.252762 225.10925,429.252762 L221.70175,429.252762 L229.92325,408.213262 L234.37475,408.213262 L242.58175,429.252762 Z M257.00925,425.714762 L257.00925,429.252762 L244.52475,429.252762 L244.52475,408.213262 L248.87475,408.213262 L248.87475,425.714762 L257.00925,425.714762 Z M273.65525,418.682262 C275.018257,418.682262 276.01633,418.353599 276.6495,417.696262 C277.28267,417.038926 277.59925,416.139935 277.59925,414.999262 C277.59925,414.47726 277.519501,414.001181 277.36,413.571012 C277.200499,413.140844 276.958835,412.773514 276.635,412.469012 C276.311165,412.164511 275.902752,411.930097 275.40975,411.765762 C274.916748,411.601428 274.33192,411.519262 273.65525,411.519262 L270.90025,411.519262 L270.90025,418.682262 L273.65525,418.682262 Z M273.65525,408.213262 C275.095591,408.213262 276.340161,408.382427 277.389,408.720762 C278.437839,409.059097 279.30058,409.530343 279.97725,410.134512 C280.65392,410.738682 281.154165,411.456425 281.478,412.287762 C281.801835,413.1191 281.96375,414.022924 281.96375,414.999262 C281.96375,416.033601 281.794585,416.980925 281.45625,417.841262 C281.117915,418.7016 280.605587,419.441093 279.91925,420.059762 C279.232913,420.678432 278.367755,421.159344 277.32375,421.502512 C276.279745,421.845681 275.056924,422.017262 273.65525,422.017262 L270.90025,422.017262 L270.90025,429.252762 L266.55025,429.252762 L266.55025,408.213262 L273.65525,408.213262 Z M291.31625,418.174762 C292.02192,418.174762 292.630914,418.085347 293.14325,417.906512 C293.655586,417.727678 294.076082,417.481181 294.40475,417.167012 C294.733418,416.852844 294.975083,416.483098 295.12975,416.057762 C295.284417,415.632427 295.36175,415.168432 295.36175,414.665762 C295.36175,413.670091 295.03067,412.896765 294.3685,412.345762 C293.70633,411.79476 292.69859,411.519262 291.34525,411.519262 L289.08325,411.519262 L289.08325,418.174762 L291.31625,418.174762 Z M301.50975,429.252762 L297.58025,429.252762 C296.84558,429.252762 296.313918,428.972432 295.98525,428.411762 L291.98325,421.959262 C291.818916,421.707928 291.637668,421.524263 291.4395,421.408262 C291.241332,421.292262 290.948919,421.234262 290.56225,421.234262 L289.08325,421.234262 L289.08325,429.252762 L284.73325,429.252762 L284.73325,408.213262 L291.34525,408.213262 C292.814591,408.213262 294.071245,408.365511 295.11525,408.670012 C296.159255,408.974514 297.014747,409.397426 297.68175,409.938762 C298.348753,410.480098 298.836915,411.125342 299.14625,411.874512 C299.455585,412.623683 299.61025,413.447758 299.61025,414.346762 C299.61025,415.042766 299.511168,415.702509 299.313,416.326012 C299.114832,416.949516 298.827252,417.517427 298.45025,418.029762 C298.073248,418.542098 297.609253,418.996427 297.05825,419.392762 C296.507247,419.789098 295.87892,420.108095 295.17325,420.349762 C295.453585,420.50443 295.714582,420.690511 295.95625,420.908012 C296.197918,421.125514 296.415416,421.384094 296.60875,421.683762 L301.50975,429.252762 Z M323.89775,418.725762 C323.89775,420.26277 323.639169,421.688589 323.122,423.003262 C322.604831,424.317936 321.875005,425.453758 320.9325,426.410762 C319.989995,427.367767 318.85659,428.119343 317.53225,428.665512 C316.20791,429.211682 314.738591,429.484762 313.12425,429.484762 C311.509909,429.484762 310.04059,429.211682 308.71625,428.665512 C307.39191,428.119343 306.256088,427.367767 305.30875,426.410762 C304.361412,425.453758 303.629169,424.317936 303.112,423.003262 C302.594831,421.688589 302.33625,420.26277 302.33625,418.725762 C302.33625,417.188755 302.594831,415.765352 303.112,414.455512 C303.629169,413.145673 304.361412,412.012267 305.30875,411.055262 C306.256088,410.098258 307.39191,409.346682 308.71625,408.800512 C310.04059,408.254343 311.509909,407.981262 313.12425,407.981262 C314.738591,407.981262 316.20791,408.254343 317.53225,408.800512 C318.85659,409.346682 319.989995,410.100674 320.9325,411.062512 C321.875005,412.024351 322.604831,413.160173 323.122,414.470012 C323.639169,415.779852 323.89775,417.198421 323.89775,418.725762 Z M319.44625,418.725762 C319.44625,417.623757 319.301251,416.63535 319.01125,415.760512 C318.721249,414.885675 318.303169,414.141349 317.757,413.527512 C317.210831,412.913676 316.548671,412.444847 315.7705,412.121012 C314.992329,411.797177 314.110255,411.635262 313.12425,411.635262 C312.138245,411.635262 311.253754,411.797177 310.47075,412.121012 C309.687746,412.444847 309.023169,412.913676 308.477,413.527512 C307.930831,414.141349 307.512751,414.885675 307.22275,415.760512 C306.932749,416.63535 306.78775,417.623757 306.78775,418.725762 C306.78775,419.837435 306.932749,420.830675 307.22275,421.705512 C307.512751,422.58035 307.930831,423.322259 308.477,423.931262 C309.023169,424.540265 309.687746,425.006677 310.47075,425.330512 C311.253754,425.654347 312.138245,425.816262 313.12425,425.816262 C314.110255,425.816262 314.992329,425.654347 315.7705,425.330512 C316.548671,425.006677 317.210831,424.540265 317.757,423.931262 C318.303169,423.322259 318.721249,422.58035 319.01125,421.705512 C319.301251,420.830675 319.44625,419.837435 319.44625,418.725762 Z M345.95225,418.725762 C345.95225,420.26277 345.693669,421.676506 345.1765,422.967012 C344.659331,424.257519 343.929505,425.366758 342.987,426.294762 C342.044495,427.222767 340.91109,427.94776 339.58675,428.469762 C338.26241,428.991765 336.793091,429.252762 335.17875,429.252762 L327.08775,429.252762 L327.08775,408.213262 L335.17875,408.213262 C336.793091,408.213262 338.26241,408.47426 339.58675,408.996262 C340.91109,409.518265 342.044495,410.245674 342.987,411.178512 C343.929505,412.11135 344.659331,413.220589 345.1765,414.506262 C345.693669,415.791936 345.95225,417.198421 345.95225,418.725762 Z M341.48625,418.725762 C341.48625,417.623757 341.341251,416.632933 341.05125,415.753262 C340.761249,414.873591 340.345586,414.129265 339.80425,413.520262 C339.262914,412.911259 338.603171,412.442431 337.825,412.113762 C337.046829,411.785094 336.164755,411.620762 335.17875,411.620762 L331.46675,411.620762 L331.46675,425.845262 L335.17875,425.845262 C336.164755,425.845262 337.046829,425.683347 337.825,425.359512 C338.603171,425.035677 339.262914,424.566849 339.80425,423.953012 C340.345586,423.339176 340.761249,422.592433 341.05125,421.712762 C341.341251,420.833091 341.48625,419.837435 341.48625,418.725762 Z M357.76975,425.772762 C358.47542,425.772762 359.108581,425.654347 359.66925,425.417512 C360.229919,425.180678 360.703581,424.844765 361.09025,424.409762 C361.476919,423.97476 361.771749,423.447932 361.97475,422.829262 C362.177751,422.210593 362.27925,421.5146 362.27925,420.741262 L362.27925,408.213262 L366.62925,408.213262 L366.62925,420.741262 C366.62925,422.017269 366.423835,423.18934 366.013,424.257512 C365.602165,425.325684 365.01492,426.246425 364.25125,427.019762 C363.48758,427.7931 362.559589,428.39726 361.46725,428.832262 C360.374911,429.267265 359.142424,429.484762 357.76975,429.484762 C356.397076,429.484762 355.162172,429.267265 354.065,428.832262 C352.967828,428.39726 352.03742,427.7931 351.27375,427.019762 C350.51008,426.246425 349.922835,425.325684 349.512,424.257512 C349.101165,423.18934 348.89575,422.017269 348.89575,420.741262 L348.89575,408.213262 L353.24575,408.213262 L353.24575,420.741262 C353.24575,421.5146 353.347249,422.210593 353.55025,422.829262 C353.753251,423.447932 354.048081,423.97476 354.43475,424.409762 C354.821419,424.844765 355.295081,425.180678 355.85575,425.417512 C356.416419,425.654347 357.054413,425.772762 357.76975,425.772762 Z M385.10225,424.076262 C385.343918,424.076262 385.546916,424.163262 385.71125,424.337262 L387.43675,426.178762 C386.586079,427.261435 385.530006,428.083093 384.2685,428.643762 C383.006994,429.204432 381.506259,429.484762 379.76625,429.484762 C378.190575,429.484762 376.774423,429.216515 375.51775,428.680012 C374.261077,428.14351 373.192921,427.396767 372.31325,426.439762 C371.433579,425.482758 370.756919,424.346936 370.28325,423.032262 C369.809581,421.717589 369.57275,420.282104 369.57275,418.725762 C369.57275,417.681757 369.686332,416.688517 369.9135,415.746012 C370.140668,414.803508 370.471748,413.935933 370.90675,413.143262 C371.341752,412.350592 371.866164,411.635266 372.48,410.997262 C373.093836,410.359259 373.787413,409.815515 374.56075,409.366012 C375.334087,408.91651 376.177495,408.573347 377.091,408.336512 C378.004505,408.099678 378.978411,407.981262 380.01275,407.981262 C380.786087,407.981262 381.51833,408.048928 382.2095,408.184262 C382.90067,408.319596 383.545914,408.508095 384.14525,408.749762 C384.744586,408.99143 385.297997,409.283844 385.8055,409.627012 C386.313003,409.970181 386.769748,410.34476 387.17575,410.750762 L385.71125,412.751762 C385.62425,412.87743 385.513084,412.988595 385.37775,413.085262 C385.242416,413.18193 385.058751,413.230262 384.82675,413.230262 C384.594749,413.230262 384.360335,413.148097 384.1235,412.983762 C383.886665,412.819428 383.596668,412.635763 383.2535,412.432762 C382.910332,412.229761 382.480169,412.046097 381.963,411.881762 C381.445831,411.717428 380.790921,411.635262 379.99825,411.635262 C379.118579,411.635262 378.31142,411.794761 377.57675,412.113762 C376.84208,412.432764 376.211336,412.894343 375.6845,413.498512 C375.157664,414.102682 374.749251,414.844591 374.45925,415.724262 C374.169249,416.603933 374.02425,417.604423 374.02425,418.725762 C374.02425,419.856768 374.181332,420.864508 374.4955,421.749012 C374.809668,422.633517 375.239831,423.380259 375.786,423.989262 C376.332169,424.598265 376.970163,425.059844 377.7,425.374012 C378.429837,425.688181 379.210413,425.845262 380.04175,425.845262 C380.534752,425.845262 380.981831,425.821096 381.383,425.772762 C381.784169,425.724429 382.156332,425.642263 382.4995,425.526262 C382.842668,425.410262 383.166498,425.26043 383.471,425.076762 C383.775502,424.893095 384.082415,424.661097 384.39175,424.380762 C384.498084,424.293762 384.609249,424.221263 384.72525,424.163262 C384.841251,424.105262 384.966916,424.076262 385.10225,424.076262 Z M404.77875,411.722262 L398.63075,411.722262 L398.63075,429.252762 L394.26625,429.252762 L394.26625,411.722262 L388.11825,411.722262 L388.11825,408.213262 L404.77875,408.213262 L404.77875,411.722262 Z M418.80025,412.244262 C418.664916,412.466597 418.527167,412.628512 418.387,412.730012 C418.246833,412.831513 418.065584,412.882262 417.84325,412.882262 C417.630582,412.882262 417.401001,412.807347 417.1545,412.657512 C416.907999,412.507678 416.620418,412.345763 416.29175,412.171762 C415.963082,411.997762 415.586085,411.835847 415.16075,411.686012 C414.735415,411.536178 414.237586,411.461262 413.66725,411.461262 C412.661912,411.461262 411.907919,411.68601 411.40525,412.135512 C410.902581,412.585015 410.65125,413.172259 410.65125,413.897262 C410.65125,414.361265 410.788999,414.745511 411.0645,415.050012 C411.340001,415.354514 411.702498,415.617928 412.152,415.840262 C412.601502,416.062597 413.111414,416.260762 413.68175,416.434762 C414.252086,416.608763 414.836914,416.799678 415.43625,417.007512 C416.035586,417.215347 416.620414,417.459428 417.19075,417.739762 C417.761086,418.020097 418.270998,418.372927 418.7205,418.798262 C419.170002,419.223598 419.532499,419.743176 419.808,420.357012 C420.083501,420.970849 420.22125,421.717591 420.22125,422.597262 C420.22125,423.554267 420.054502,424.450842 419.721,425.287012 C419.387498,426.123183 418.906586,426.853009 418.27825,427.476512 C417.649914,428.100016 416.874171,428.590594 415.951,428.948262 C415.027829,429.305931 413.981423,429.484762 412.81175,429.484762 C412.144747,429.484762 411.48017,429.417096 410.818,429.281762 C410.15583,429.146428 409.517836,428.95793 408.904,428.716262 C408.290164,428.474595 407.712586,428.184597 407.17125,427.846262 C406.629914,427.507927 406.156252,427.130931 405.75025,426.715262 L407.02625,424.656262 C407.132584,424.501595 407.272749,424.373513 407.44675,424.272012 C407.620751,424.170512 407.804416,424.119762 407.99775,424.119762 C408.258751,424.119762 408.534249,424.216428 408.82425,424.409762 C409.114251,424.603097 409.447748,424.815761 409.82475,425.047762 C410.201752,425.279764 410.639164,425.492428 411.137,425.685762 C411.634836,425.879097 412.231747,425.975762 412.92775,425.975762 C413.942755,425.975762 414.728164,425.743765 415.284,425.279762 C415.839836,424.81576 416.11775,424.1246 416.11775,423.206262 C416.11775,422.674593 415.980001,422.244431 415.7045,421.915762 C415.428999,421.587094 415.068919,421.311597 414.62425,421.089262 C414.179581,420.866928 413.672086,420.676013 413.10175,420.516512 C412.531414,420.357012 411.946586,420.180597 411.34725,419.987262 C410.747914,419.793928 410.163086,419.56193 409.59275,419.291262 C409.022414,419.020594 408.514919,418.662931 408.07025,418.218262 C407.625581,417.773594 407.265501,417.222599 406.99,416.565262 C406.714499,415.907926 406.57675,415.091101 406.57675,414.114762 C406.57675,413.331759 406.731415,412.572933 407.04075,411.838262 C407.350085,411.103592 407.804414,410.451099 408.40375,409.880762 C409.003086,409.310426 409.740162,408.851264 410.615,408.503262 C411.489838,408.155261 412.492744,407.981262 413.62375,407.981262 C414.89009,407.981262 416.062161,408.17701 417.14,408.568512 C418.217839,408.960014 419.128913,409.503759 419.87325,410.199762 L418.80025,412.244262 Z" id="BUILDING-DIGITAL-PRO" fill="#EB503E"></path>
                <ellipse id="Oval" fill="#4990E2" cx="173.522615" cy="186.388725" rx="70.1366498" ry="70.1594437"></ellipse>
                <ellipse id="Oval" fill="#F14723" style="mix-blend-mode: hard-light;" cx="209.560626" cy="132.31414" rx="70.1366498" ry="70.1594437"></ellipse>
                <ellipse id="Oval" fill="#7ED321" style="mix-blend-mode: multiply;" cx="243.734603" cy="186.388725" rx="70.1366498" ry="70.1594437"></ellipse>
                <path d="M279.414725,125.97353 C279.601746,128.062054 279.697276,130.176937 279.697276,132.31414 C279.697276,171.062131 248.296029,202.473584 209.560626,202.473584 C196.532337,202.473584 184.333724,198.920162 173.880505,192.729335 C173.693484,190.640821 173.597953,188.525933 173.597953,186.388725 C173.597953,147.640735 204.999201,116.229282 243.734603,116.229282 C256.762893,116.229282 268.961506,119.782703 279.414725,125.97353 Z" id="Combined-Shape" fill="#F8E81C" style="mix-blend-mode: hard-light;"></path>
            </g>
        </g>
    </g>
</svg>