<?xml version="1.0" encoding="UTF-8"?>
<svg width="58px" height="41px" viewBox="0 0 58 41" version="1.1" xmlns="http://www.w3.org/2000/svg" xmlns:xlink="http://www.w3.org/1999/xlink">
    <!-- Generator: Sketch 41.2 (35397) - http://www.bohemiancoding.com/sketch -->
    <title>menu</title>
    <desc>Created with Sketch.</desc>
    <defs></defs>
    <g id="Main-Page" stroke="none" stroke-width="1" fill="none" fill-rule="evenodd">
        <g id="Desktop-Copy-8" transform="translate(-917.000000, -61.000000)" fill="#EB503E">
            <g id="menu" transform="translate(917.000000, 61.000000)">
                <g id="Layer_1">
                    <g id="Group">
                        <path d="M55.6571172,18.1180843 L2.34288281,18.1180843 C1.04898437,18.1180843 0,19.1844298 0,20.5 C0,21.8155702 1.04898437,22.8819157 2.34288281,22.8819157 L55.6571172,22.8819157 C56.9511289,22.8819157 58,21.8155702 58,20.5 C58,19.1845449 56.9511289,18.1180843 55.6571172,18.1180843 Z" id="Shape"></path>
                        <path d="M55.6571172,0.0505589888 L2.34288281,0.0505589888 C1.04898437,0.0505589888 0,1.11701966 0,2.43247472 C0,3.74792978 1.04898437,4.81439045 2.34288281,4.81439045 L55.6571172,4.81439045 C56.9511289,4.81439045 58,3.74792978 58,2.43247472 C58,1.11701966 56.9511289,0.0505589888 55.6571172,0.0505589888 Z" id="Shape"></path>
                        <path d="M55.6571172,36.1856096 L2.34288281,36.1856096 C1.04898437,36.1856096 0,37.2519551 0,38.5675253 C0,39.8830955 1.04898437,40.949441 2.34288281,40.949441 L55.6571172,40.949441 C56.9511289,40.949441 58,39.8830955 58,38.5675253 C58,37.2519551 56.9511289,36.1856096 55.6571172,36.1856096 Z" id="Shape"></path>
                    </g>
                </g>
            </g>
        </g>
    </g>
</svg>