<?xml version="1.0" encoding="UTF-8"?>
<svg width="421px" height="83px" viewBox="0 0 421 83" version="1.1" xmlns="http://www.w3.org/2000/svg" xmlns:xlink="http://www.w3.org/1999/xlink">
    <!-- Generator: Sketch 41.2 (35397) - http://www.bohemiancoding.com/sketch -->
    <title>Group 14</title>
    <desc>Created with Sketch.</desc>
    <defs></defs>
    <g id="Main-Page" stroke="none" stroke-width="1" fill="none" fill-rule="evenodd">
        <g id="Desktop-Copy-8" transform="translate(-302.000000, -4610.000000)">
            <g id="Group-14" transform="translate(302.000000, 4610.000000)">
                <path d="M4.59210526,1.05662983 L4.59210526,45.4350829 L10.494883,45.4350829 L10.494883,26.4779006 L24.9100877,26.4779006 C26.3599,26.4779006 27.5197325,26.6954398 28.3896199,27.1305249 C29.2595073,27.5656099 29.9636913,28.1457146 30.502193,28.8708564 C31.0406947,29.5959981 31.4342093,30.4454371 31.6827485,31.4191989 C31.9312878,32.3929607 32.1384007,33.4185029 32.3040936,34.4958564 C32.5112096,35.5732098 32.6354774,36.6712651 32.6769006,37.7900552 C32.7183238,38.9088454 32.7597464,39.9551056 32.8011696,40.9288674 C32.8425928,41.9026292 32.9357936,42.7831452 33.0807749,43.570442 C33.2257561,44.3577387 33.5053586,44.9792795 33.9195906,45.4350829 L40.505848,45.4350829 C39.8844998,44.6892228 39.4184957,43.8294248 39.1078216,42.855663 C38.7971476,41.8819012 38.5589677,40.856359 38.3932749,39.7790055 C38.227582,38.7016521 38.1240255,37.6035968 38.0826023,36.4848066 C38.0411791,35.3660165 37.9790452,34.2679612 37.8961988,33.1906077 C37.7719292,32.1132543 37.5958832,31.077353 37.3680556,30.0828729 C37.1402279,29.0883928 36.7881359,28.1871587 36.311769,27.3791436 C35.8354021,26.5711286 35.193352,25.8770747 34.3855994,25.2969613 C33.5778468,24.7168479 32.5319265,24.3024874 31.247807,24.0538674 L31.247807,23.929558 C33.9403156,23.1836979 35.8975329,21.7955903 37.1195175,19.7651934 C38.3415022,17.7347965 38.9524854,15.3729416 38.9524854,12.679558 C38.9524854,9.07456761 37.761586,6.2361982 35.3797515,4.16436464 C32.9979169,2.09253108 29.6944656,1.05662983 25.4692982,1.05662983 L4.59210526,1.05662983 Z M22.7975146,21.5055249 L10.494883,21.5055249 L10.494883,6.02900552 L25.1586257,6.02900552 C27.9339807,6.02900552 29.9429762,6.73341837 31.1856725,8.14226519 C32.4283688,9.55111202 33.0497076,11.3742982 33.0497076,13.6118785 C33.0497076,15.2279086 32.7701051,16.5435032 32.2108918,17.5587017 C31.6516785,18.5739001 30.9060719,19.3819031 29.9740497,19.9827348 C29.0420275,20.5835665 27.9546846,20.987568 26.7119883,21.1947514 C25.469292,21.4019347 24.1644805,21.5055249 22.7975146,21.5055249 Z M44.2960526,23.2458564 C44.2960526,20.0966693 44.7413454,17.1132738 45.6319444,14.2955801 C46.5225434,11.4778865 47.827355,9.01244151 49.5464181,6.89917127 C51.2654813,4.78590104 53.3987446,3.10774102 55.9462719,1.86464088 C58.4937993,0.621540746 61.4244474,0 64.7383041,0 C68.0521608,0 70.9828089,0.621540746 73.5303363,1.86464088 C76.0778636,3.10774102 78.2111269,4.78590104 79.9301901,6.89917127 C81.6492532,9.01244151 82.9540647,11.4778865 83.8446637,14.2955801 C84.7352627,17.1132738 85.1805556,20.0966693 85.1805556,23.2458564 C85.1805556,26.3950434 84.7352627,29.378439 83.8446637,32.1961326 C82.9540647,35.0138262 81.6492532,37.4792712 79.9301901,39.5925414 C78.2111269,41.7058117 76.0778636,43.3736127 73.5303363,44.5959945 C70.9828089,45.8183763 68.0521608,46.429558 64.7383041,46.429558 C61.4244474,46.429558 58.4937993,45.8183763 55.9462719,44.5959945 C53.3987446,43.3736127 51.2654813,41.7058117 49.5464181,39.5925414 C47.827355,37.4792712 46.5225434,35.0138262 45.6319444,32.1961326 C44.7413454,29.378439 44.2960526,26.3950434 44.2960526,23.2458564 Z M116.812935,44.191989 L91.7046784,44.191989 L91.7046784,1.05662983 L90.4619883,1.05662983 L90.4619883,45.4350829 L116.962354,45.4350829 L117.676901,45.4350829 L124.073288,29.5836437 L145.603611,29.5836437 L152.037281,45.4350829 L153.40424,45.4350829 L135.88231,1.05662983 L134.266813,1.05662983 L116.812935,44.191989 Z M45.5387427,23.2458564 C45.5801659,26.43648 46.04617,29.3784396 46.936769,32.0718232 C47.827368,34.7652068 49.0907569,37.0856256 50.7269737,39.0331492 C52.3631904,40.9806727 54.3618303,42.5034475 56.7229532,43.6015193 C59.0840761,44.6995911 61.755833,45.2486188 64.7383041,45.2486188 C67.7207751,45.2486188 70.3925321,44.6995911 72.753655,43.6015193 C75.1147779,42.5034475 77.1134177,40.9806727 78.7496345,39.0331492 C80.3858513,37.0856256 81.6492402,34.7652068 82.5398392,32.0718232 C83.4304382,29.3784396 83.8964423,26.43648 83.9378655,23.2458564 C83.8964423,20.0552327 83.4304382,17.1132731 82.5398392,14.4198895 C81.6492402,11.7265059 80.3858513,9.40608709 78.7496345,7.45856354 C77.1134177,5.51103999 75.1147779,3.98826516 72.753655,2.89019337 C70.3925321,1.79212158 67.7207751,1.24309392 64.7383041,1.24309392 C61.755833,1.24309392 59.0840761,1.79212158 56.7229532,2.89019337 C54.3618303,3.98826516 52.3631904,5.51103999 50.7269737,7.45856354 C49.0907569,9.40608709 47.827368,11.7265059 46.936769,14.4198895 C46.04617,17.1132731 45.5801659,20.0552327 45.5387427,23.2458564 Z M145.699561,29.5856354 L124.076754,29.5856354 L135.012427,2.29972376 L135.136696,2.29972376 L145.699561,29.5856354 Z M156.076023,1.05662983 L156.076023,45.4350829 L157.318713,45.4350829 L157.318713,2.61049724 L157.442982,2.61049724 L187.76462,45.4350829 L189.628655,45.4350829 L189.628655,1.05662983 L188.385965,1.05662983 L188.385965,43.8812155 L188.261696,43.8812155 L157.940058,1.05662983 L156.076023,1.05662983 Z M197.581871,44.191989 L197.581871,2.29972376 L211.562135,2.29972376 C213.798988,2.29972376 215.984029,2.61049413 218.117325,3.2320442 C220.25062,3.85359427 222.166415,4.9620086 223.864766,6.55732044 C225.563118,8.15263229 226.930063,10.2969479 227.965643,12.9903315 C229.001224,15.6837151 229.519006,19.1021892 229.519006,23.2458564 C229.519006,26.8094101 229.011579,29.9067548 227.996711,32.5379834 C226.981842,35.1692121 225.594185,37.3446047 223.833699,39.0642265 C222.073212,40.7838484 220.022794,42.0683659 217.682383,42.9178177 C215.341972,43.7672694 212.866972,44.191989 210.25731,44.191989 L197.581871,44.191989 Z M196.339181,1.05662983 L196.339181,45.4350829 L209.946637,45.4350829 C212.639146,45.4350829 215.228058,45.0207224 217.71345,44.191989 C220.198843,43.3632555 222.414951,42.068379 224.361842,40.3073204 C226.308733,38.5462619 227.86208,36.2569202 229.02193,33.4392265 C230.18178,30.6215329 230.761696,27.2237768 230.761696,23.2458564 C230.761696,18.8950059 230.192135,15.2900695 229.052997,12.4309392 C227.913859,9.57180891 226.443357,7.30318519 224.641447,5.625 C222.839538,3.94681481 220.809831,2.7658874 218.552266,2.08218232 C216.294701,1.39847724 214.068237,1.05662983 211.872807,1.05662983 L196.339181,1.05662983 Z M255.366959,1.05662983 L255.366959,45.4350829 L261.269737,45.4350829 L261.269737,25.1104972 L284.63231,25.1104972 L284.63231,45.4350829 L290.535088,45.4350829 L290.535088,1.05662983 L284.63231,1.05662983 L284.63231,20.1381215 L261.269737,20.1381215 L261.269737,1.05662983 L255.366959,1.05662983 Z M330.052632,1.05662983 L330.052632,28.9019337 C330.052632,34.2472643 328.830665,38.3079972 326.386696,41.0842541 C323.942727,43.8605111 320.15256,45.2486188 315.016082,45.2486188 C309.879604,45.2486188 306.089437,43.8605111 303.645468,41.0842541 C301.201499,38.3079972 299.979532,34.2472643 299.979532,28.9019337 L299.979532,1.05662983 L298.736842,1.05662983 L298.736842,28.9019337 C298.736842,34.8688144 300.124499,39.2817537 302.899854,42.140884 C305.675209,45.0000143 309.713911,46.429558 315.016082,46.429558 C320.318253,46.429558 324.356955,45.0000143 327.13231,42.140884 C329.907665,39.2817537 331.295322,34.8688144 331.295322,28.9019337 L331.295322,1.05662983 L330.052632,1.05662983 Z M339.248538,22.9350829 L370.315789,22.9350829 L370.315789,45.4350829 L371.55848,45.4350829 L371.55848,1.05662983 L370.315789,1.05662983 L370.315789,21.691989 L339.248538,21.691989 L339.248538,1.05662983 L338.005848,1.05662983 L338.005848,45.4350829 L339.248538,45.4350829 L339.248538,22.9350829 Z M378.269006,1.05662983 L378.269006,45.4350829 L379.511696,45.4350829 L379.511696,2.61049724 L379.635965,2.61049724 L409.957602,45.4350829 L411.821637,45.4350829 L411.821637,1.05662983 L410.578947,1.05662983 L410.578947,43.8812155 L410.454678,43.8812155 L380.133041,1.05662983 L378.269006,1.05662983 Z" id="ROLAND-HUHN" fill="#FFFFFF"></path>
                <path d="M8.10225,79.094558 C8.79825348,79.094558 9.37099775,79.0099755 9.8205,78.840808 C10.2700022,78.6716405 10.630082,78.4468927 10.90075,78.166558 C11.171418,77.8862233 11.3599161,77.5648098 11.46625,77.202308 C11.5725839,76.8398062 11.62575,76.4652266 11.62575,76.078558 C11.62575,75.6532226 11.5629173,75.271393 11.43725,74.933058 C11.3115827,74.594723 11.1085847,74.3071425 10.82825,74.070308 C10.5479153,73.8334735 10.1830022,73.6522253 9.7335,73.526558 C9.28399775,73.4008907 8.73058662,73.338058 8.07325,73.338058 L4.37575,73.338058 L4.37575,79.094558 L8.10225,79.094558 Z M4.37575,64.696058 L4.37575,70.380058 L7.23225,70.380058 C7.84125305,70.380058 8.38258096,70.3293085 8.85625,70.227808 C9.32991903,70.1263075 9.72624841,69.9643925 10.04525,69.742058 C10.3642516,69.5197236 10.6083325,69.2273098 10.7775,68.864808 C10.9466675,68.5023062 11.03125,68.0648939 11.03125,67.552558 C11.03125,67.0305554 10.9611674,66.5858932 10.821,66.218558 C10.6808326,65.8512228 10.4657515,65.5563925 10.17575,65.334058 C9.88574855,65.1117236 9.51841889,64.9498085 9.07375,64.848308 C8.62908111,64.7468075 8.10225304,64.696058 7.49325,64.696058 L4.37575,64.696058 Z M7.49325,61.390058 C8.90459039,61.390058 10.110495,61.5229733 11.111,61.788808 C12.111505,62.0546427 12.9283302,62.4316389 13.5615,62.919808 C14.1946698,63.4079771 14.6562485,64.0000545 14.94625,64.696058 C15.2362514,65.3920615 15.38125,66.1702204 15.38125,67.030558 C15.38125,67.5138938 15.3111674,67.9778891 15.171,68.422558 C15.0308326,68.8672269 14.8133348,69.2853061 14.5185,69.676808 C14.2236652,70.06831 13.8442523,70.4235564 13.38025,70.742558 C12.9162477,71.0615596 12.3652532,71.3322236 11.72725,71.554558 C13.1579238,71.892893 14.2164132,72.4438875 14.90275,73.207558 C15.5890868,73.9712285 15.93225,74.9620519 15.93225,76.180058 C15.93225,77.0693958 15.7606684,77.8958875 15.4175,78.659558 C15.0743316,79.4232285 14.5740866,80.0853885 13.91675,80.646058 C13.2594134,81.2067275 12.4498381,81.6441398 11.488,81.958308 C10.5261619,82.2724762 9.42175624,82.429558 8.17475,82.429558 L0.02575,82.429558 L0.02575,61.390058 L7.49325,61.390058 Z M27.88025,78.949558 C28.5859202,78.949558 29.2190805,78.8311425 29.77975,78.594308 C30.3404195,78.3574735 30.8140814,78.0215602 31.20075,77.586558 C31.5874186,77.1515558 31.882249,76.6247278 32.08525,76.006058 C32.288251,75.3873883 32.38975,74.6913952 32.38975,73.918058 L32.38975,61.390058 L36.73975,61.390058 L36.73975,73.918058 C36.73975,75.1940644 36.5343354,76.366136 36.1235,77.434308 C35.7126646,78.50248 35.1254205,79.4232208 34.36175,80.196558 C33.5980795,80.9698952 32.6700888,81.5740558 31.57775,82.009058 C30.4854112,82.4440602 29.2529235,82.661558 27.88025,82.661558 C26.5075765,82.661558 25.2726722,82.4440602 24.1755,82.009058 C23.0783278,81.5740558 22.1479205,80.9698952 21.38425,80.196558 C20.6205795,79.4232208 20.0333354,78.50248 19.6225,77.434308 C19.2116646,76.366136 19.00625,75.1940644 19.00625,73.918058 L19.00625,61.390058 L23.35625,61.390058 L23.35625,73.918058 C23.35625,74.6913952 23.457749,75.3873883 23.66075,76.006058 C23.863751,76.6247278 24.1585814,77.1515558 24.54525,77.586558 C24.9319186,78.0215602 25.4055805,78.3574735 25.96625,78.594308 C26.5269195,78.8311425 27.1649131,78.949558 27.88025,78.949558 Z M45.26575,82.429558 L40.88675,82.429558 L40.88675,61.390058 L45.26575,61.390058 L45.26575,82.429558 Z M62.15825,78.891558 L62.15825,82.429558 L49.67375,82.429558 L49.67375,61.390058 L54.02375,61.390058 L54.02375,78.891558 L62.15825,78.891558 Z M83.67625,71.902558 C83.67625,73.4395657 83.4176693,74.8533016 82.9005,76.143808 C82.3833307,77.4343145 81.6535047,78.5435534 80.711,79.471558 C79.7684953,80.3995627 78.63509,81.1245554 77.31075,81.646558 C75.98641,82.1685606 74.5170914,82.429558 72.90275,82.429558 L64.81175,82.429558 L64.81175,61.390058 L72.90275,61.390058 C74.5170914,61.390058 75.98641,61.6510554 77.31075,62.173058 C78.63509,62.6950606 79.7684953,63.42247 80.711,64.355308 C81.6535047,65.288146 82.3833307,66.3973849 82.9005,67.683058 C83.4176693,68.9687311 83.67625,70.375217 83.67625,71.902558 Z M79.21025,71.902558 C79.21025,70.8005525 79.0652515,69.8097291 78.77525,68.930058 C78.4852486,68.0503869 78.069586,67.3060611 77.52825,66.697058 C76.986914,66.088055 76.3271706,65.6192263 75.549,65.290558 C74.7708294,64.9618897 73.8887549,64.797558 72.90275,64.797558 L69.19075,64.797558 L69.19075,79.022058 L72.90275,79.022058 C73.8887549,79.022058 74.7708294,78.860143 75.549,78.536308 C76.3271706,78.2124731 76.986914,77.7436444 77.52825,77.129808 C78.069586,76.5159716 78.4852486,75.7692291 78.77525,74.889558 C79.0652515,74.0098869 79.21025,73.0142302 79.21025,71.902558 Z M91.25975,82.429558 L86.88075,82.429558 L86.88075,61.390058 L91.25975,61.390058 L91.25975,82.429558 Z M113.69125,61.390058 L113.69125,82.429558 L111.44375,82.429558 C111.105415,82.429558 110.820251,82.3739752 110.58825,82.262808 C110.356249,82.1516408 110.129084,81.960726 109.90675,81.690058 L99.42325,68.350058 C99.4522501,68.688393 99.4739999,69.0218897 99.4885,69.350558 C99.5030001,69.6792263 99.51025,69.9837233 99.51025,70.264058 L99.51025,82.429558 L95.66775,82.429558 L95.66775,61.390058 L97.95875,61.390058 C98.1424176,61.390058 98.2994993,61.3973079 98.43,61.411808 C98.5605007,61.4263081 98.6789161,61.4601411 98.78525,61.513308 C98.8915839,61.5664749 98.9930829,61.6365576 99.08975,61.723558 C99.1864172,61.8105584 99.2927494,61.9265573 99.40875,62.071558 L109.96475,75.469558 C109.926083,75.1022228 109.897083,74.7469764 109.87775,74.403808 C109.858417,74.0606396 109.84875,73.7343929 109.84875,73.425058 L109.84875,61.390058 L113.69125,61.390058 Z M128.33625,71.714058 L135.55725,71.714058 L135.55725,80.399558 C134.484245,81.1825619 133.341173,81.7553062 132.128,82.117808 C130.914827,82.4803098 129.63159,82.661558 128.27825,82.661558 C126.547908,82.661558 124.981924,82.3933107 123.58025,81.856808 C122.178576,81.3203053 120.979922,80.5735628 119.98425,79.616558 C118.988578,78.6595532 118.220086,77.5237313 117.67875,76.209058 C117.137414,74.8943848 116.86675,73.4588991 116.86675,71.902558 C116.86675,70.3268835 117.125331,68.8817313 117.6425,67.567058 C118.159669,66.2523848 118.896745,65.1213961 119.85375,64.174058 C120.810755,63.2267199 121.968327,62.4872273 123.3265,61.955558 C124.684673,61.4238887 126.204742,61.158058 127.88675,61.158058 C128.756754,61.158058 129.568746,61.2281406 130.32275,61.368308 C131.076754,61.5084754 131.772747,61.7018068 132.41075,61.948308 C133.048753,62.1948092 133.633581,62.487223 134.16525,62.825558 C134.696919,63.163893 135.180248,63.536056 135.61525,63.942058 L134.35375,65.885058 C134.160416,66.1943929 133.909085,66.382891 133.59975,66.450558 C133.290415,66.518225 132.952085,66.4408925 132.58475,66.218558 C132.236748,66.0058903 131.896002,65.8149755 131.5625,65.645808 C131.228998,65.4766405 130.873752,65.3292253 130.49675,65.203558 C130.119748,65.0778907 129.708919,64.981225 129.26425,64.913558 C128.819581,64.845891 128.307253,64.812058 127.72725,64.812058 C126.750912,64.812058 125.866421,64.981223 125.07375,65.319558 C124.281079,65.657893 123.606836,66.1363883 123.051,66.755058 C122.495164,67.3737278 122.067418,68.1180537 121.76775,68.988058 C121.468082,69.8580624 121.31825,70.8295526 121.31825,71.902558 C121.31825,73.0625638 121.482582,74.0993034 121.81125,75.012808 C122.139918,75.9263126 122.603914,76.6972215 123.20325,77.325558 C123.802586,77.9538945 124.520329,78.4323897 125.3565,78.761058 C126.192671,79.0897263 127.123078,79.254058 128.14775,79.254058 C128.843753,79.254058 129.464831,79.1839754 130.011,79.043808 C130.557169,78.9036406 131.091247,78.7127259 131.61325,78.471058 L131.61325,74.933058 L129.23525,74.933058 C128.954915,74.933058 128.735001,74.8581421 128.5755,74.708308 C128.415999,74.5584739 128.33625,74.3675592 128.33625,74.135558 L128.33625,71.714058 Z M164.86175,71.902558 C164.86175,73.4395657 164.603169,74.8533016 164.086,76.143808 C163.568831,77.4343145 162.839005,78.5435534 161.8965,79.471558 C160.953995,80.3995627 159.82059,81.1245554 158.49625,81.646558 C157.17191,82.1685606 155.702591,82.429558 154.08825,82.429558 L145.99725,82.429558 L145.99725,61.390058 L154.08825,61.390058 C155.702591,61.390058 157.17191,61.6510554 158.49625,62.173058 C159.82059,62.6950606 160.953995,63.42247 161.8965,64.355308 C162.839005,65.288146 163.568831,66.3973849 164.086,67.683058 C164.603169,68.9687311 164.86175,70.375217 164.86175,71.902558 Z M160.39575,71.902558 C160.39575,70.8005525 160.250751,69.8097291 159.96075,68.930058 C159.670749,68.0503869 159.255086,67.3060611 158.71375,66.697058 C158.172414,66.088055 157.512671,65.6192263 156.7345,65.290558 C155.956329,64.9618897 155.074255,64.797558 154.08825,64.797558 L150.37625,64.797558 L150.37625,79.022058 L154.08825,79.022058 C155.074255,79.022058 155.956329,78.860143 156.7345,78.536308 C157.512671,78.2124731 158.172414,77.7436444 158.71375,77.129808 C159.255086,76.5159716 159.670749,75.7692291 159.96075,74.889558 C160.250751,74.0098869 160.39575,73.0142302 160.39575,71.902558 Z M172.44525,82.429558 L168.06625,82.429558 L168.06625,61.390058 L172.44525,61.390058 L172.44525,82.429558 Z M187.09025,71.714058 L194.31125,71.714058 L194.31125,80.399558 C193.238245,81.1825619 192.095173,81.7553062 190.882,82.117808 C189.668827,82.4803098 188.38559,82.661558 187.03225,82.661558 C185.301908,82.661558 183.735924,82.3933107 182.33425,81.856808 C180.932576,81.3203053 179.733922,80.5735628 178.73825,79.616558 C177.742578,78.6595532 176.974086,77.5237313 176.43275,76.209058 C175.891414,74.8943848 175.62075,73.4588991 175.62075,71.902558 C175.62075,70.3268835 175.879331,68.8817313 176.3965,67.567058 C176.913669,66.2523848 177.650745,65.1213961 178.60775,64.174058 C179.564755,63.2267199 180.722327,62.4872273 182.0805,61.955558 C183.438673,61.4238887 184.958742,61.158058 186.64075,61.158058 C187.510754,61.158058 188.322746,61.2281406 189.07675,61.368308 C189.830754,61.5084754 190.526747,61.7018068 191.16475,61.948308 C191.802753,62.1948092 192.387581,62.487223 192.91925,62.825558 C193.450919,63.163893 193.934248,63.536056 194.36925,63.942058 L193.10775,65.885058 C192.914416,66.1943929 192.663085,66.382891 192.35375,66.450558 C192.044415,66.518225 191.706085,66.4408925 191.33875,66.218558 C190.990748,66.0058903 190.650002,65.8149755 190.3165,65.645808 C189.982998,65.4766405 189.627752,65.3292253 189.25075,65.203558 C188.873748,65.0778907 188.462919,64.981225 188.01825,64.913558 C187.573581,64.845891 187.061253,64.812058 186.48125,64.812058 C185.504912,64.812058 184.620421,64.981223 183.82775,65.319558 C183.035079,65.657893 182.360836,66.1363883 181.805,66.755058 C181.249164,67.3737278 180.821418,68.1180537 180.52175,68.988058 C180.222082,69.8580624 180.07225,70.8295526 180.07225,71.902558 C180.07225,73.0625638 180.236582,74.0993034 180.56525,75.012808 C180.893918,75.9263126 181.357914,76.6972215 181.95725,77.325558 C182.556586,77.9538945 183.274329,78.4323897 184.1105,78.761058 C184.946671,79.0897263 185.877078,79.254058 186.90175,79.254058 C187.597753,79.254058 188.218831,79.1839754 188.765,79.043808 C189.311169,78.9036406 189.845247,78.7127259 190.36725,78.471058 L190.36725,74.933058 L187.98925,74.933058 C187.708915,74.933058 187.489001,74.8581421 187.3295,74.708308 C187.169999,74.5584739 187.09025,74.3675592 187.09025,74.135558 L187.09025,71.714058 Z M202.24275,82.429558 L197.86375,82.429558 L197.86375,61.390058 L202.24275,61.390058 L202.24275,82.429558 Z M221.54225,64.899058 L215.39425,64.899058 L215.39425,82.429558 L211.02975,82.429558 L211.02975,64.899058 L204.88175,64.899058 L204.88175,61.390058 L221.54225,61.390058 L221.54225,64.899058 Z M235.27375,74.440058 L232.99725,68.002058 C232.861916,67.663723 232.719334,67.2673936 232.5695,66.813058 C232.419666,66.3587224 232.277084,65.8657273 232.14175,65.334058 C232.006416,65.8753941 231.863834,66.375639 231.714,66.834808 C231.564166,67.293977 231.421584,67.692723 231.28625,68.031058 L229.02425,74.440058 L235.27375,74.440058 Z M242.58175,82.429558 L239.20325,82.429558 C238.826248,82.429558 238.519335,82.3401422 238.2825,82.161308 C238.045665,81.9824738 237.869251,81.7528927 237.75325,81.472558 L236.33225,77.456058 L227.95125,77.456058 L226.53025,81.472558 C226.433583,81.7142259 226.264418,81.9341404 226.02275,82.132308 C225.781082,82.3304757 225.476585,82.429558 225.10925,82.429558 L221.70175,82.429558 L229.92325,61.390058 L234.37475,61.390058 L242.58175,82.429558 Z M257.00925,78.891558 L257.00925,82.429558 L244.52475,82.429558 L244.52475,61.390058 L248.87475,61.390058 L248.87475,78.891558 L257.00925,78.891558 Z M273.65525,71.859058 C275.018257,71.859058 276.01633,71.5303946 276.6495,70.873058 C277.28267,70.2157214 277.59925,69.3167304 277.59925,68.176058 C277.59925,67.6540554 277.519501,67.1779768 277.36,66.747808 C277.200499,66.3176392 276.958835,65.9503095 276.635,65.645808 C276.311165,65.3413065 275.902752,65.1068922 275.40975,64.942558 C274.916748,64.7782239 274.33192,64.696058 273.65525,64.696058 L270.90025,64.696058 L270.90025,71.859058 L273.65525,71.859058 Z M273.65525,61.390058 C275.095591,61.390058 276.340161,61.559223 277.389,61.897558 C278.437839,62.235893 279.30058,62.7071383 279.97725,63.311308 C280.65392,63.9154777 281.154165,64.6332205 281.478,65.464558 C281.801835,66.2958955 281.96375,67.1997198 281.96375,68.176058 C281.96375,69.2103965 281.794585,70.1577204 281.45625,71.018058 C281.117915,71.8783956 280.605587,72.6178883 279.91925,73.236558 C279.232913,73.8552278 278.367755,74.3361396 277.32375,74.679308 C276.279745,75.0224764 275.056924,75.194058 273.65525,75.194058 L270.90025,75.194058 L270.90025,82.429558 L266.55025,82.429558 L266.55025,61.390058 L273.65525,61.390058 Z M291.31625,71.351558 C292.02192,71.351558 292.630914,71.2621422 293.14325,71.083308 C293.655586,70.9044738 294.076082,70.6579762 294.40475,70.343808 C294.733418,70.0296398 294.975083,69.6598935 295.12975,69.234558 C295.284417,68.8092226 295.36175,68.3452272 295.36175,67.842558 C295.36175,66.8468864 295.03067,66.0735608 294.3685,65.522558 C293.70633,64.9715553 292.69859,64.696058 291.34525,64.696058 L289.08325,64.696058 L289.08325,71.351558 L291.31625,71.351558 Z M301.50975,82.429558 L297.58025,82.429558 C296.84558,82.429558 296.313918,82.1492275 295.98525,81.588558 L291.98325,75.136058 C291.818916,74.8847234 291.637668,74.7010586 291.4395,74.585058 C291.241332,74.4690574 290.948919,74.411058 290.56225,74.411058 L289.08325,74.411058 L289.08325,82.429558 L284.73325,82.429558 L284.73325,61.390058 L291.34525,61.390058 C292.814591,61.390058 294.071245,61.5423065 295.11525,61.846808 C296.159255,62.1513095 297.014747,62.574222 297.68175,63.115558 C298.348753,63.6568941 298.836915,64.3021376 299.14625,65.051308 C299.455585,65.8004784 299.61025,66.6245535 299.61025,67.523558 C299.61025,68.2195615 299.511168,68.8793049 299.313,69.502808 C299.114832,70.1263111 298.827252,70.6942221 298.45025,71.206558 C298.073248,71.7188939 297.609253,72.1732227 297.05825,72.569558 C296.507247,72.9658933 295.87892,73.2848901 295.17325,73.526558 C295.453585,73.6812255 295.714582,73.8673069 295.95625,74.084808 C296.197918,74.3023091 296.415416,74.5608898 296.60875,74.860558 L301.50975,82.429558 Z M323.89775,71.902558 C323.89775,73.4395657 323.639169,74.8653848 323.122,76.180058 C322.604831,77.4947313 321.875005,78.6305532 320.9325,79.587558 C319.989995,80.5445628 318.85659,81.2961386 317.53225,81.842308 C316.20791,82.3884774 314.738591,82.661558 313.12425,82.661558 C311.509909,82.661558 310.04059,82.3884774 308.71625,81.842308 C307.39191,81.2961386 306.256088,80.5445628 305.30875,79.587558 C304.361412,78.6305532 303.629169,77.4947313 303.112,76.180058 C302.594831,74.8653848 302.33625,73.4395657 302.33625,71.902558 C302.33625,70.3655503 302.594831,68.9421479 303.112,67.632308 C303.629169,66.3224681 304.361412,65.1890628 305.30875,64.232058 C306.256088,63.2750532 307.39191,62.5234774 308.71625,61.977308 C310.04059,61.4311386 311.509909,61.158058 313.12425,61.158058 C314.738591,61.158058 316.20791,61.4311386 317.53225,61.977308 C318.85659,62.5234774 319.989995,63.2774699 320.9325,64.239308 C321.875005,65.2011462 322.604831,66.3369681 323.122,67.646808 C323.639169,68.9566479 323.89775,70.375217 323.89775,71.902558 Z M319.44625,71.902558 C319.44625,70.8005525 319.301251,69.8121457 319.01125,68.937308 C318.721249,68.0624703 318.303169,67.3181444 317.757,66.704308 C317.210831,66.0904716 316.548671,65.621643 315.7705,65.297808 C314.992329,64.9739731 314.110255,64.812058 313.12425,64.812058 C312.138245,64.812058 311.253754,64.9739731 310.47075,65.297808 C309.687746,65.621643 309.023169,66.0904716 308.477,66.704308 C307.930831,67.3181444 307.512751,68.0624703 307.22275,68.937308 C306.932749,69.8121457 306.78775,70.8005525 306.78775,71.902558 C306.78775,73.0142302 306.932749,74.0074703 307.22275,74.882308 C307.512751,75.7571457 307.930831,76.499055 308.477,77.108058 C309.023169,77.7170611 309.687746,78.1834731 310.47075,78.507308 C311.253754,78.831143 312.138245,78.993058 313.12425,78.993058 C314.110255,78.993058 314.992329,78.831143 315.7705,78.507308 C316.548671,78.1834731 317.210831,77.7170611 317.757,77.108058 C318.303169,76.499055 318.721249,75.7571457 319.01125,74.882308 C319.301251,74.0074703 319.44625,73.0142302 319.44625,71.902558 Z M345.95225,71.902558 C345.95225,73.4395657 345.693669,74.8533016 345.1765,76.143808 C344.659331,77.4343145 343.929505,78.5435534 342.987,79.471558 C342.044495,80.3995627 340.91109,81.1245554 339.58675,81.646558 C338.26241,82.1685606 336.793091,82.429558 335.17875,82.429558 L327.08775,82.429558 L327.08775,61.390058 L335.17875,61.390058 C336.793091,61.390058 338.26241,61.6510554 339.58675,62.173058 C340.91109,62.6950606 342.044495,63.42247 342.987,64.355308 C343.929505,65.288146 344.659331,66.3973849 345.1765,67.683058 C345.693669,68.9687311 345.95225,70.375217 345.95225,71.902558 Z M341.48625,71.902558 C341.48625,70.8005525 341.341251,69.8097291 341.05125,68.930058 C340.761249,68.0503869 340.345586,67.3060611 339.80425,66.697058 C339.262914,66.088055 338.603171,65.6192263 337.825,65.290558 C337.046829,64.9618897 336.164755,64.797558 335.17875,64.797558 L331.46675,64.797558 L331.46675,79.022058 L335.17875,79.022058 C336.164755,79.022058 337.046829,78.860143 337.825,78.536308 C338.603171,78.2124731 339.262914,77.7436444 339.80425,77.129808 C340.345586,76.5159716 340.761249,75.7692291 341.05125,74.889558 C341.341251,74.0098869 341.48625,73.0142302 341.48625,71.902558 Z M357.76975,78.949558 C358.47542,78.949558 359.108581,78.8311425 359.66925,78.594308 C360.229919,78.3574735 360.703581,78.0215602 361.09025,77.586558 C361.476919,77.1515558 361.771749,76.6247278 361.97475,76.006058 C362.177751,75.3873883 362.27925,74.6913952 362.27925,73.918058 L362.27925,61.390058 L366.62925,61.390058 L366.62925,73.918058 C366.62925,75.1940644 366.423835,76.366136 366.013,77.434308 C365.602165,78.50248 365.01492,79.4232208 364.25125,80.196558 C363.48758,80.9698952 362.559589,81.5740558 361.46725,82.009058 C360.374911,82.4440602 359.142424,82.661558 357.76975,82.661558 C356.397076,82.661558 355.162172,82.4440602 354.065,82.009058 C352.967828,81.5740558 352.03742,80.9698952 351.27375,80.196558 C350.51008,79.4232208 349.922835,78.50248 349.512,77.434308 C349.101165,76.366136 348.89575,75.1940644 348.89575,73.918058 L348.89575,61.390058 L353.24575,61.390058 L353.24575,73.918058 C353.24575,74.6913952 353.347249,75.3873883 353.55025,76.006058 C353.753251,76.6247278 354.048081,77.1515558 354.43475,77.586558 C354.821419,78.0215602 355.295081,78.3574735 355.85575,78.594308 C356.416419,78.8311425 357.054413,78.949558 357.76975,78.949558 Z M385.10225,77.253058 C385.343918,77.253058 385.546916,77.3400571 385.71125,77.514058 L387.43675,79.355558 C386.586079,80.4382301 385.530006,81.2598885 384.2685,81.820558 C383.006994,82.3812275 381.506259,82.661558 379.76625,82.661558 C378.190575,82.661558 376.774423,82.3933107 375.51775,81.856808 C374.261077,81.3203053 373.192921,80.5735628 372.31325,79.616558 C371.433579,78.6595532 370.756919,77.5237313 370.28325,76.209058 C369.809581,74.8943848 369.57275,73.4588991 369.57275,71.902558 C369.57275,70.8585528 369.686332,69.8653127 369.9135,68.922808 C370.140668,67.9803033 370.471748,67.1127286 370.90675,66.320058 C371.341752,65.5273874 371.866164,64.8120612 372.48,64.174058 C373.093836,63.5360548 373.787413,62.9923103 374.56075,62.542808 C375.334087,62.0933058 376.177495,61.7501425 377.091,61.513308 C378.004505,61.2764735 378.978411,61.158058 380.01275,61.158058 C380.786087,61.158058 381.51833,61.225724 382.2095,61.361058 C382.90067,61.496392 383.545914,61.6848901 384.14525,61.926558 C384.744586,62.1682259 385.297997,62.4606396 385.8055,62.803808 C386.313003,63.1469764 386.769748,63.521556 387.17575,63.927558 L385.71125,65.928558 C385.62425,66.0542253 385.513084,66.1653909 385.37775,66.262058 C385.242416,66.3587252 385.058751,66.407058 384.82675,66.407058 C384.594749,66.407058 384.360335,66.3248922 384.1235,66.160558 C383.886665,65.9962239 383.596668,65.812559 383.2535,65.609558 C382.910332,65.406557 382.480169,65.2228922 381.963,65.058558 C381.445831,64.8942239 380.790921,64.812058 379.99825,64.812058 C379.118579,64.812058 378.31142,64.9715564 377.57675,65.290558 C376.84208,65.6095596 376.211336,66.0711383 375.6845,66.675308 C375.157664,67.2794777 374.749251,68.0213869 374.45925,68.901058 C374.169249,69.7807291 374.02425,70.7812191 374.02425,71.902558 C374.02425,73.0335637 374.181332,74.0413036 374.4955,74.925808 C374.809668,75.8103124 375.239831,76.557055 375.786,77.166058 C376.332169,77.7750611 376.970163,78.2366398 377.7,78.550808 C378.429837,78.8649762 379.210413,79.022058 380.04175,79.022058 C380.534752,79.022058 380.981831,78.9978916 381.383,78.949558 C381.784169,78.9012244 382.156332,78.8190586 382.4995,78.703058 C382.842668,78.5870574 383.166498,78.4372256 383.471,78.253558 C383.775502,78.0698904 384.082415,77.8378927 384.39175,77.557558 C384.498084,77.4705576 384.609249,77.3980583 384.72525,77.340058 C384.841251,77.2820577 384.966916,77.253058 385.10225,77.253058 Z M404.77875,64.899058 L398.63075,64.899058 L398.63075,82.429558 L394.26625,82.429558 L394.26625,64.899058 L388.11825,64.899058 L388.11825,61.390058 L404.77875,61.390058 L404.77875,64.899058 Z M418.80025,65.421058 C418.664916,65.6433925 418.527167,65.8053075 418.387,65.906808 C418.246833,66.0083085 418.065584,66.059058 417.84325,66.059058 C417.630582,66.059058 417.401001,65.9841421 417.1545,65.834308 C416.907999,65.6844739 416.620418,65.5225589 416.29175,65.348558 C415.963082,65.1745571 415.586085,65.0126421 415.16075,64.862808 C414.735415,64.7129739 414.237586,64.638058 413.66725,64.638058 C412.661912,64.638058 411.907919,64.8628058 411.40525,65.312308 C410.902581,65.7618103 410.65125,66.3490544 410.65125,67.074058 C410.65125,67.5380603 410.788999,67.9223065 411.0645,68.226808 C411.340001,68.5313095 411.702498,68.7947236 412.152,69.017058 C412.601502,69.2393925 413.111414,69.4375571 413.68175,69.611558 C414.252086,69.7855589 414.836914,69.9764736 415.43625,70.184308 C416.035586,70.3921424 416.620414,70.6362233 417.19075,70.916558 C417.761086,71.1968927 418.270998,71.5497226 418.7205,71.975058 C419.170002,72.4003935 419.532499,72.9199716 419.808,73.533808 C420.083501,74.1476444 420.22125,74.8943869 420.22125,75.774058 C420.22125,76.7310628 420.054502,77.6276372 419.721,78.463808 C419.387498,79.2999789 418.906586,80.0298049 418.27825,80.653308 C417.649914,81.2768111 416.874171,81.7673896 415.951,82.125058 C415.027829,82.4827265 413.981423,82.661558 412.81175,82.661558 C412.144747,82.661558 411.48017,82.593892 410.818,82.458558 C410.15583,82.323224 409.517836,82.1347259 408.904,81.893058 C408.290164,81.6513901 407.712586,81.361393 407.17125,81.023058 C406.629914,80.684723 406.156252,80.3077268 405.75025,79.892058 L407.02625,77.833058 C407.132584,77.6783906 407.272749,77.5503085 407.44675,77.448808 C407.620751,77.3473075 407.804416,77.296558 407.99775,77.296558 C408.258751,77.296558 408.534249,77.3932237 408.82425,77.586558 C409.114251,77.7798923 409.447748,77.9925569 409.82475,78.224558 C410.201752,78.4565592 410.639164,78.6692237 411.137,78.862558 C411.634836,79.0558923 412.231747,79.152558 412.92775,79.152558 C413.942755,79.152558 414.728164,78.9205603 415.284,78.456558 C415.839836,77.9925557 416.11775,77.3013959 416.11775,76.383058 C416.11775,75.8513887 415.980001,75.4212263 415.7045,75.092558 C415.428999,74.7638897 415.068919,74.4883925 414.62425,74.266058 C414.179581,74.0437236 413.672086,73.8528088 413.10175,73.693308 C412.531414,73.5338072 411.946586,73.3573923 411.34725,73.164058 C410.747914,72.9707237 410.163086,72.738726 409.59275,72.468058 C409.022414,72.19739 408.514919,71.8397269 408.07025,71.395058 C407.625581,70.9503891 407.265501,70.3993946 406.99,69.742058 C406.714499,69.0847214 406.57675,68.2678962 406.57675,67.291558 C406.57675,66.5085541 406.731415,65.7497284 407.04075,65.015058 C407.350085,64.2803877 407.804414,63.6278942 408.40375,63.057558 C409.003086,62.4872218 409.740162,62.0280598 410.615,61.680058 C411.489838,61.3320563 412.492744,61.158058 413.62375,61.158058 C414.89009,61.158058 416.062161,61.3538061 417.14,61.745308 C418.217839,62.13681 419.128913,62.6805545 419.87325,63.376558 L418.80025,65.421058 Z" id="BUILDING-DIGITAL-PRO" fill="#EB503E"></path>
            </g>
        </g>
    </g>
</svg>